<svg width="293" height="76" viewBox="0 0 293 76" fill="none" xmlns="http://www.w3.org/2000/svg">
<path d="M4 17.5C4.66667 17.5 5.2 18 5.6 19C7.2 23 8.76667 28.9333 10.3 36.8C10.4333 37.5333 10.6167 38.3 10.85 39.1C12.9167 29.8333 15.7333 22.5333 19.3 17.2C19.9667 16.2 20.5333 15.7 21 15.7C22 15.7 22.5 16.2 22.5 17.2C22.5 17.5 22.2333 18.05 21.7 18.85C18.1 24.25 15.2 32.4667 13 43.5C12.8 44.5 12.3 45 11.5 45C10.8333 45 10.1167 44.4333 9.35 43.3C8.58333 42.1333 7.93333 40.2 7.4 37.5C5.83333 29.7333 4.28333 23.9167 2.75 20.05C2.58333 19.6167 2.5 19.2333 2.5 18.9C2.5 18.5333 2.63333 18.2167 2.9 17.95C3.16667 17.65 3.53333 17.5 4 17.5ZM31.5 20.5L31 34.5C31 36.2333 31.0833 38.05 31.25 39.95C31.45 41.8167 31.6167 42.9667 31.75 43.4C31.9167 43.8333 32 44.2 32 44.5C32 45.5 31.5 46 30.5 46C29.8333 46 29.3333 45.5 29 44.5C28.3333 42.5 28 39.1667 28 34.5L28.5 20.5C28.5 19.5 29 19 30 19C31 19 31.5 19.5 31.5 20.5ZM67.5117 31C69.3451 31 71.3284 30.9167 73.4617 30.75C75.6284 30.5833 77.0617 30.4 77.7617 30.2C78.2951 25.9333 79.0117 22.7 79.9117 20.5C80.3117 19.5 80.8451 19 81.5117 19C82.5117 19 83.0117 19.5 83.0117 20.5C83.0117 20.7667 82.8284 21.35 82.4617 22.25C82.0951 23.15 81.6784 24.9 81.2117 27.5C80.7451 30.0667 80.5117 32.2333 80.5117 34C80.5117 35.7667 80.6784 37.75 81.0117 39.95C81.3451 42.15 81.5951 43.5167 81.7617 44.05C81.9284 44.55 82.0117 44.8667 82.0117 45C82.0117 46 81.5117 46.5 80.5117 46.5C80.2117 46.5 79.8951 46.35 79.5617 46.05C79.2617 45.7833 79.0117 45.3667 78.8117 44.8C78.6451 44.2333 78.3784 42.8 78.0117 40.5C77.6784 38.2 77.5117 36.0333 77.5117 34V33.3C74.7117 33.7667 71.3784 34 67.5117 34C67.6451 37.7333 67.7617 39.8667 67.8617 40.4C67.9617 40.9 68.0117 41.2667 68.0117 41.5C68.0117 42.5 67.5117 43 66.5117 43C65.7117 43 65.2284 42.5667 65.0617 41.7C64.8951 40.8333 64.7117 38.2667 64.5117 34C64.0784 34 63.7117 33.85 63.4117 33.55C63.1451 33.25 63.0117 32.9 63.0117 32.5C63.0117 31.5 63.5117 31 64.5117 31V22C64.5117 20.7667 64.4284 19.7333 64.2617 18.9C64.0951 18.0667 64.0117 17.5 64.0117 17.2C64.0117 16.2 64.5117 15.7 65.5117 15.7C66.2451 15.7 66.7284 16.2333 66.9617 17.3C67.3284 19.8667 67.5117 21.4333 67.5117 22V31ZM40.5117 45C39.5117 45 39.0117 44.5 39.0117 43.5C39.0117 42.5 39.5117 42 40.5117 42C47.1784 42 51.7617 41.5 54.2617 40.5C55.4284 40.0333 56.0117 39.55 56.0117 39.05C56.0117 38.55 55.5951 38.1 54.7617 37.7C53.9617 37.3 52.5951 36.7833 50.6617 36.15C48.7617 35.5167 47.3117 34.9833 46.3117 34.55C41.4451 32.5167 39.0117 29.4333 39.0117 25.3C39.0117 22.6 40.1784 20.3333 42.5117 18.5C44.8451 16.6333 47.6451 15.7 50.9117 15.7C52.7117 15.7 54.2117 16.2333 55.4117 17.3C56.6451 18.3667 57.2617 19.65 57.2617 21.15C57.2617 22.65 56.6784 23.9833 55.5117 25.15C54.3451 26.3167 53.5451 26.9 53.1117 26.9C52.1117 26.9 51.6117 26.4 51.6117 25.4C51.6117 24.9667 52.0451 24.3167 52.9117 23.45C53.8117 22.55 54.2617 21.8667 54.2617 21.4C54.2617 20.6 53.9451 19.95 53.3117 19.45C52.7117 18.95 51.9284 18.7 50.9617 18.7C48.4951 18.7 46.3784 19.3333 44.6117 20.6C42.8784 21.8333 42.0117 23.3333 42.0117 25.1C42.0117 26.8667 42.4951 28.25 43.4617 29.25C44.4617 30.25 45.5784 31.0167 46.8117 31.55C48.0784 32.05 49.3451 32.5167 50.6117 32.95C51.8784 33.35 52.9284 33.7167 53.7617 34.05C54.6284 34.35 55.4951 34.7333 56.3617 35.2C58.1284 36.1667 59.0117 37.4333 59.0117 39C59.0117 41.0333 57.5451 42.55 54.6117 43.55C51.7117 44.5167 47.0117 45 40.5117 45ZM127.16 17.75L127.11 17.2C127.11 16.7333 127.243 16.3667 127.51 16.1C127.81 15.8333 128.126 15.7 128.46 15.7C129.293 15.7 129.843 16.2 130.11 17.2C130.71 19.6667 131.01 21.95 131.01 24.05C131.01 26.15 130.743 28.4167 130.21 30.85C129.676 33.25 128.926 35.5333 127.96 37.7C126.993 39.8333 125.693 41.5833 124.06 42.95C122.426 44.3167 120.693 45 118.86 45C117.06 45 115.61 44.5667 114.51 43.7C113.443 42.8333 112.676 41.5833 112.21 39.95C111.41 37.3167 111.01 34.15 111.01 30.45C111.01 26.7167 111.343 23.1333 112.01 19.7C112.11 19.2333 112.31 18.8667 112.61 18.6C112.91 18.3333 113.21 18.2 113.51 18.2C114.51 18.2 115.01 18.7 115.01 19.7L114.86 20.65C114.293 23.45 114.01 26.05 114.01 28.45C114.01 30.8167 114.026 32.4667 114.06 33.4C114.093 34.3 114.193 35.35 114.36 36.55C114.56 37.7167 114.81 38.6833 115.11 39.45C115.41 40.1833 115.86 40.8167 116.46 41.35C117.06 41.85 117.776 42.1 118.61 42.1C120.443 42.1 122.093 41.1333 123.56 39.2C125.026 37.2333 126.126 34.8667 126.86 32.1C127.626 29.3333 128.01 26.8167 128.01 24.55C128.01 22.25 127.726 19.9833 127.16 17.75ZM99.3098 41C99.6431 39.6667 99.8931 38.6333 100.06 37.9C100.26 37.1667 100.393 36.6167 100.46 36.25C100.526 35.8833 100.576 35.6 100.61 35.4C100.676 35.2 100.726 34.9333 100.76 34.6C100.793 34.2667 100.81 34.05 100.81 33.95C100.843 33.8167 100.876 33.5167 100.91 33.05C100.943 32.55 101.026 31.7167 101.16 30.55C101.293 29.35 101.593 27.5333 102.06 25.1C102.526 22.6333 102.86 21.1 103.06 20.5C103.826 18.1667 104.643 17 105.51 17C106.51 17 107.01 17.5 107.01 18.5C107.01 18.8 106.86 19.25 106.56 19.85C106.26 20.45 106.026 21 105.86 21.5C105.693 22 105.393 23.3833 104.96 25.65C104.56 27.9167 104.26 30.05 104.06 32.05C103.86 34.05 103.66 35.4833 103.46 36.35C103.293 37.2167 102.726 39.6 101.76 43.5C101.526 44.5 101.026 45 100.26 45C99.0598 45 98.1598 44.6833 97.5598 44.05C96.9598 43.3833 96.5764 42.6333 96.4098 41.8C96.3431 41.5667 95.9098 39.3333 95.1098 35.1C93.0431 24.1667 91.6764 18.7 91.0098 18.7C90.3431 18.7 90.0098 19.2 90.0098 20.2C90.0098 20.4667 90.0431 21.9333 90.1098 24.6C90.3764 32.6 90.5098 38.9 90.5098 43.5C90.5098 44.5 90.0098 45 89.0098 45C88.0098 45 87.5098 44.5 87.5098 43.5C87.5098 38.9 87.4264 33.9333 87.2598 28.6C87.0931 23.2667 87.0098 20.4667 87.0098 20.2C87.0098 18.8667 87.3764 17.7833 88.1098 16.95C88.8764 16.1167 89.8431 15.7 91.0098 15.7C92.6431 15.7 93.8431 16.8667 94.6098 19.2C95.2764 21.1667 96.1931 25.2167 97.3598 31.35C98.5598 37.45 99.2098 40.6667 99.3098 41ZM142.008 12.1C142.008 15.4 141.074 18.9 139.208 22.6C138.708 23.6 138.141 24.1 137.508 24.1C136.508 24.1 136.008 23.6 136.008 22.6C136.008 22.3667 136.074 22.1167 136.208 21.85C138.074 18.35 139.008 15.1 139.008 12.1C139.008 11.1 139.508 10.6 140.508 10.6C141.508 10.6 142.008 11.1 142.008 12.1ZM151.498 45C150.498 45 149.998 44.5 149.998 43.5C149.998 42.5 150.498 42 151.498 42C158.165 42 162.748 41.5 165.248 40.5C166.415 40.0333 166.998 39.55 166.998 39.05C166.998 38.55 166.581 38.1 165.748 37.7C164.948 37.3 163.581 36.7833 161.648 36.15C159.748 35.5167 158.298 34.9833 157.298 34.55C152.431 32.5167 149.998 29.4333 149.998 25.3C149.998 22.6 151.165 20.3333 153.498 18.5C155.831 16.6333 158.631 15.7 161.898 15.7C163.698 15.7 165.198 16.2333 166.398 17.3C167.631 18.3667 168.248 19.65 168.248 21.15C168.248 22.65 167.665 23.9833 166.498 25.15C165.331 26.3167 164.531 26.9 164.098 26.9C163.098 26.9 162.598 26.4 162.598 25.4C162.598 24.9667 163.031 24.3167 163.898 23.45C164.798 22.55 165.248 21.8667 165.248 21.4C165.248 20.6 164.931 19.95 164.298 19.45C163.698 18.95 162.915 18.7 161.948 18.7C159.481 18.7 157.365 19.3333 155.598 20.6C153.865 21.8333 152.998 23.3333 152.998 25.1C152.998 26.8667 153.481 28.25 154.448 29.25C155.448 30.25 156.565 31.0167 157.798 31.55C159.065 32.05 160.331 32.5167 161.598 32.95C162.865 33.35 163.915 33.7167 164.748 34.05C165.615 34.35 166.481 34.7333 167.348 35.2C169.115 36.1667 169.998 37.4333 169.998 39C169.998 41.0333 168.531 42.55 165.598 43.55C162.698 44.5167 157.998 45 151.498 45ZM225.745 20L225.045 37.5C225.045 39.5 228.878 40.5 236.545 40.5C237.545 40.5 238.045 41 238.045 42C238.045 43 237.545 43.5 236.545 43.5C226.878 43.5 222.045 41.5 222.045 37.5L222.745 20L222.545 17.25C222.545 16.2167 223.045 15.7 224.045 15.7C224.945 15.7 225.445 16.2 225.545 17.2C225.678 18 225.745 18.9333 225.745 20ZM198.045 21.5C198.045 20.5 198.545 20 199.545 20C200.312 20 200.812 20.5 201.045 21.5C201.245 22.2333 201.545 23.7667 201.945 26.1C202.345 28.4 202.545 33.7 202.545 42C202.545 43 202.045 43.5 201.045 43.5C200.045 43.5 199.545 43 199.545 42C199.545 34.1333 199.378 29.1333 199.045 27C198.745 25.1333 198.528 23.8833 198.395 23.25C198.162 22.3167 198.045 21.7333 198.045 21.5ZM204.045 18.7L199.545 19C198.545 19 198.045 18.5 198.045 17.5C198.045 16.6 198.545 16.1 199.545 16C201.545 15.8 203.045 15.7 204.045 15.7C207.245 15.7 209.795 16.5833 211.695 18.35C213.595 20.1167 214.545 22.1667 214.545 24.5C214.545 26.8333 213.662 28.8 211.895 30.4C213.695 31 215.162 31.85 216.295 32.95C217.462 34.0167 218.045 35.1667 218.045 36.4C218.045 37.6333 217.828 38.7333 217.395 39.7C216.962 40.6333 216.462 41.4 215.895 42C215.328 42.6 214.478 43.2167 213.345 43.85C212.212 44.4833 211.245 44.95 210.445 45.25C209.645 45.55 208.478 45.9833 206.945 46.55C205.412 47.1167 204.328 47.5167 203.695 47.75C203.062 48.0167 202.462 48.15 201.895 48.15C200.895 48.15 200.395 47.6333 200.395 46.6C200.395 46.1333 200.928 45.6833 201.995 45.25C203.095 44.8167 204.328 44.35 205.695 43.85C207.062 43.35 208.095 42.9667 208.795 42.7C209.528 42.4333 210.362 42.0667 211.295 41.6C212.195 41.1333 212.878 40.6833 213.345 40.25C214.478 39.1833 215.045 37.9333 215.045 36.5C215.045 35.5333 214.095 34.6333 212.195 33.8C210.295 32.9333 208.412 32.5 206.545 32.5C205.545 32.5 205.045 32 205.045 31C205.045 30 205.545 29.5 206.545 29.5C207.878 29.5 209.045 29 210.045 28C211.045 27 211.545 25.8 211.545 24.4C211.545 22.9667 210.878 21.6667 209.545 20.5C208.212 19.3 206.378 18.7 204.045 18.7ZM280.539 33.5C280.539 32.3333 281.872 31.75 284.539 31.75C287.439 31.75 289.139 32 289.639 32.5C289.906 32.7667 290.039 33.1 290.039 33.5C290.039 34.5 289.539 35 288.539 35C288.472 35 288.006 34.9667 287.139 34.9C286.306 34.8 285.639 34.75 285.139 34.75C285.739 35.8167 286.039 36.8667 286.039 37.9C286.039 39.9 285.372 41.5833 284.039 42.95C282.706 44.3167 281.039 45 279.039 45C276.406 45 274.239 44.1667 272.539 42.5C270.872 40.8 270.039 38.6833 270.039 36.15C270.039 33.5833 270.372 31.1167 271.039 28.75C271.706 26.35 272.639 24.1833 273.839 22.25C275.072 20.2833 276.656 18.7 278.589 17.5C280.556 16.3 282.706 15.7 285.039 15.7C286.506 15.7 287.706 16.1667 288.639 17.1C289.572 18.0333 290.039 19.15 290.039 20.45C290.039 21.75 289.622 23.1 288.789 24.5C288.156 25.5 287.572 26 287.039 26C286.039 26 285.539 25.5 285.539 24.5C285.539 24.2667 285.789 23.7333 286.289 22.9C286.789 22.0667 287.039 21.3333 287.039 20.7C287.039 19.3667 286.372 18.7 285.039 18.7C282.506 18.7 280.289 19.6 278.389 21.4C276.522 23.2 275.156 25.3833 274.289 27.95C273.456 30.5167 273.039 33.2 273.039 36C273.039 37.8 273.589 39.25 274.689 40.35C275.789 41.45 277.089 42 278.589 42C280.089 42 281.206 41.6167 281.939 40.85C282.672 40.0833 283.039 39.1833 283.039 38.15C283.039 37.1167 282.622 36.2167 281.789 35.45C280.956 34.6833 280.539 34.0333 280.539 33.5ZM254.139 22.3L253.189 22.15C252.589 22.05 251.856 22 250.989 22C250.122 22 249.289 22.4333 248.489 23.3C247.656 24.1 247.006 25.1333 246.539 26.4C245.539 29.0333 245.039 31.4 245.039 33.5C245.039 39.1667 247.289 42 251.789 42C255.422 42 258.206 40.8167 260.139 38.45C262.072 36.05 263.039 32.9 263.039 29C263.039 26.9333 262.622 25.0833 261.789 23.45C260.956 21.8167 259.706 21 258.039 21C257.706 21 256.922 21.0833 255.689 21.25C255.522 21.95 255.006 22.3 254.139 22.3ZM251.789 45C248.622 45 246.206 43.95 244.539 41.85C242.872 39.7167 242.039 36.9333 242.039 33.5C242.039 30.8667 242.722 27.9167 244.089 24.65C244.756 23.05 245.706 21.7167 246.939 20.65C248.206 19.55 249.606 19 251.139 19C251.739 19 252.372 19.0333 253.039 19.1C254.006 18.3667 255.706 18 258.139 18C260.606 18 262.539 19.1 263.939 21.3C265.339 23.4667 266.039 26.0333 266.039 29C266.039 33.7 264.772 37.55 262.239 40.55C259.706 43.5167 256.222 45 251.789 45Z" fill="#373737"/>
<path d="M5.6 19L6.52848 18.6286L5.6 19ZM10.3 36.8L11.2839 36.6211L11.2815 36.6087L10.3 36.8ZM10.85 39.1L9.89 39.38L11.826 39.3177L10.85 39.1ZM19.3 17.2L20.1313 17.7559L20.132 17.7547L19.3 17.2ZM21.7 18.85L22.5321 19.4047L21.7 18.85ZM13 43.5L13.9806 43.6961L13.9807 43.6955L13 43.5ZM9.35 43.3L8.51422 43.8492L8.52172 43.8603L9.35 43.3ZM7.4 37.5L8.38105 37.3062L8.38026 37.3023L7.4 37.5ZM2.75 20.05L1.8166 20.409L1.82042 20.4186L2.75 20.05ZM2.9 17.95L3.60711 18.6571L3.62789 18.6363L3.64741 18.6144L2.9 17.95ZM31.5 20.5L32.4994 20.5357L32.5 20.5179V20.5H31.5ZM31 34.5L30.0006 34.4643L30 34.4821V34.5H31ZM31.25 39.95L30.2538 40.0374L30.2547 40.047L30.2557 40.0565L31.25 39.95ZM31.75 43.4L30.7942 43.6941L30.8043 43.7269L30.8167 43.759L31.75 43.4ZM29 44.5L29.9487 44.1838L29 44.5ZM28 34.5L27.0006 34.4643L27 34.4821V34.5H28ZM28.5 20.5L29.4994 20.5357L29.5 20.5179V20.5H28.5ZM4 18.5C4.05376 18.5 4.11525 18.51 4.21606 18.6045C4.33773 18.7186 4.50226 18.9482 4.67152 19.3714L6.52848 18.6286C6.08171 17.5117 5.2993 16.5 4 16.5V18.5ZM4.67152 19.3714C6.23625 23.2832 7.78878 29.1433 9.31847 36.9913L11.2815 36.6087C9.74455 28.7233 8.16375 22.7168 6.52848 18.6286L4.67152 19.3714ZM9.31613 36.9789C9.45634 37.75 9.64808 38.5505 9.89 39.38L11.81 38.82C11.5853 38.0494 11.4103 37.3167 11.2839 36.6211L9.31613 36.9789ZM11.826 39.3177C13.8775 30.1192 16.658 22.9496 20.1313 17.7559L18.4688 16.6441C14.8087 22.1171 11.9559 29.5475 9.87398 38.8823L11.826 39.3177ZM20.132 17.7547C20.442 17.2898 20.6949 16.994 20.8866 16.8248C21.0937 16.6421 21.1223 16.7 21 16.7V14.7C20.4111 14.7 19.923 15.0079 19.5634 15.3252C19.1884 15.656 18.8247 16.1102 18.468 16.6453L20.132 17.7547ZM21 16.7C21.1697 16.7 21.2774 16.7216 21.34 16.7424C21.3978 16.7617 21.4151 16.7793 21.4179 16.7821C21.4207 16.7849 21.4383 16.8022 21.4576 16.86C21.4784 16.9226 21.5 17.0303 21.5 17.2H23.5C23.5 16.5459 23.3358 15.8716 22.8321 15.3679C22.3284 14.8642 21.6541 14.7 21 14.7V16.7ZM21.5 17.2C21.5 17.1371 21.512 17.121 21.4959 17.1725C21.4815 17.2182 21.4527 17.2929 21.4002 17.4012C21.2946 17.619 21.1219 17.9144 20.868 18.2953L22.5321 19.4047C22.8114 18.9856 23.0387 18.606 23.1998 18.2738C23.3445 17.9755 23.5 17.5899 23.5 17.2H21.5ZM20.868 18.2953C17.1607 23.8561 14.2289 32.2231 12.0193 43.3045L13.9807 43.6955C16.1711 32.7102 19.0393 24.6439 22.5321 19.4047L20.868 18.2953ZM12.0194 43.3039C11.9418 43.6918 11.8292 43.8565 11.7679 43.9179C11.7307 43.9551 11.6728 44 11.5 44V46C12.1272 46 12.7193 45.7949 13.1821 45.3321C13.6208 44.8935 13.8582 44.3082 13.9806 43.6961L12.0194 43.3039ZM11.5 44C11.4624 44 11.3292 43.9855 11.0827 43.7906C10.8342 43.5941 10.5298 43.2593 10.1783 42.7397L8.52172 43.8603C8.93689 44.474 9.37414 44.9893 9.84227 45.3594C10.3124 45.7312 10.871 46 11.5 46V44ZM10.1857 42.7508C9.52983 41.7528 8.90889 39.9784 8.38104 37.3062L6.41896 37.6938C6.95778 40.4216 7.63684 42.5139 8.51429 43.8492L10.1857 42.7508ZM8.38026 37.3023C6.81034 29.5195 5.24646 23.6327 3.67958 19.6814L1.82042 20.4186C3.3202 24.2007 4.85633 29.9472 6.41974 37.6977L8.38026 37.3023ZM3.68335 19.691C3.54469 19.3305 3.5 19.0727 3.5 18.9H1.5C1.5 19.394 1.62198 19.9028 1.81665 20.409L3.68335 19.691ZM3.5 18.9C3.5 18.8069 3.52199 18.7422 3.60711 18.6571L2.1929 17.2429C1.74467 17.6911 1.5 18.2598 1.5 18.9H3.5ZM3.64741 18.6144C3.69277 18.5633 3.76778 18.5 4 18.5V16.5C3.29888 16.5 2.64057 16.7367 2.15259 17.2856L3.64741 18.6144ZM30.5006 20.4643L30.0006 34.4643L31.9994 34.5357L32.4994 20.5357L30.5006 20.4643ZM30 34.5C30 36.2652 30.0849 38.1112 30.2538 40.0374L32.2462 39.8626C32.0818 37.9888 32 36.2014 32 34.5H30ZM30.2557 40.0565C30.4516 41.8848 30.626 43.1474 30.7942 43.6941L32.7058 43.1059C32.6073 42.7859 32.4484 41.7485 32.2443 39.8435L30.2557 40.0565ZM30.8167 43.759C30.9608 44.1337 31 44.371 31 44.5H33C33 44.029 32.8726 43.533 32.6833 43.041L30.8167 43.759ZM31 44.5C31 44.6697 30.9784 44.7774 30.9576 44.84C30.9383 44.8978 30.9207 44.9151 30.9179 44.9179C30.9151 44.9207 30.8978 44.9383 30.84 44.9576C30.7774 44.9784 30.6697 45 30.5 45V47C31.1541 47 31.8284 46.8358 32.3321 46.3321C32.8358 45.8284 33 45.1541 33 44.5H31ZM30.5 45C30.4492 45 30.4072 44.993 30.3321 44.9179C30.2325 44.8182 30.0884 44.6028 29.9487 44.1838L28.0513 44.8162C28.4282 45.9469 29.1691 47 30.5 47V45ZM29.9487 44.1838C29.3372 42.3493 29 39.1574 29 34.5H27C27 39.1759 27.3295 42.6507 28.0513 44.8162L29.9487 44.1838ZM28.9994 34.5357L29.4994 20.5357L27.5006 20.4643L27.0006 34.4643L28.9994 34.5357ZM29.5 20.5C29.5 20.3303 29.5216 20.2226 29.5424 20.16C29.5617 20.1022 29.5793 20.0849 29.5821 20.0821C29.5849 20.0793 29.6022 20.0617 29.66 20.0424C29.7226 20.0216 29.8304 20 30 20V18C29.3459 18 28.6716 18.1642 28.1679 18.6679C27.6642 19.1716 27.5 19.8459 27.5 20.5H29.5ZM30 20C30.1697 20 30.2774 20.0216 30.34 20.0424C30.3978 20.0617 30.4151 20.0793 30.4179 20.0821C30.4207 20.0849 30.4383 20.1022 30.4576 20.16C30.4784 20.2226 30.5 20.3303 30.5 20.5H32.5C32.5 19.8459 32.3358 19.1716 31.8321 18.6679C31.3284 18.1642 30.6541 18 30 18V20ZM67.5117 31H66.5117V32H67.5117V31ZM73.4617 30.75L73.385 29.7529L73.3838 29.753L73.4617 30.75ZM77.7617 30.2L78.0364 31.1615L78.672 30.9799L78.754 30.324L77.7617 30.2ZM79.9117 20.5L80.8373 20.8786L80.8402 20.8714L79.9117 20.5ZM82.4617 22.25L83.3878 22.6273V22.6273L82.4617 22.25ZM81.2117 27.5L82.1956 27.6789L82.196 27.6767L81.2117 27.5ZM81.0117 39.95L80.023 40.0998L81.0117 39.95ZM81.7617 44.05L80.8072 44.3483L80.8101 44.3573L80.813 44.3662L81.7617 44.05ZM79.5617 46.05L80.2307 45.3067L80.2261 45.3026L79.5617 46.05ZM78.8117 44.8L77.8524 45.0822L77.8599 45.1077L77.8687 45.1328L78.8117 44.8ZM78.0117 40.5L77.0221 40.6434L77.0231 40.6504L77.0242 40.6574L78.0117 40.5ZM77.5117 33.3H78.5117V32.1195L77.3473 32.3136L77.5117 33.3ZM67.5117 34V33H66.4754L66.5124 34.0357L67.5117 34ZM67.8617 40.4L66.8788 40.5843L66.8811 40.5961L67.8617 40.4ZM65.0617 41.7L64.0797 41.8888L65.0617 41.7ZM64.5117 34L65.5106 33.9532L65.4659 33H64.5117V34ZM63.4117 33.55L62.6643 34.2144L62.6838 34.2363L62.7046 34.2571L63.4117 33.55ZM64.5117 31V32H65.5117V31H64.5117ZM64.2617 18.9L63.2811 19.0961L64.2617 18.9ZM66.9617 17.3L67.9517 17.1586L67.9465 17.1222L67.9386 17.0863L66.9617 17.3ZM54.2617 40.5L54.6331 41.4285L54.2617 40.5ZM54.7617 37.7L54.3145 38.5944L54.3217 38.598L54.329 38.6015L54.7617 37.7ZM50.6617 36.15L50.3455 37.0987L50.3504 37.1003L50.6617 36.15ZM46.3117 34.55L46.7094 33.6324L46.6972 33.6273L46.3117 34.55ZM42.5117 18.5L43.1296 19.2863L43.1364 19.2809L42.5117 18.5ZM55.4117 17.3L54.7473 18.0475L54.7576 18.0564L55.4117 17.3ZM55.5117 25.15L54.8046 24.4429L55.5117 25.15ZM53.3117 19.45L52.6715 20.2182L52.6817 20.2267L52.6921 20.2349L53.3117 19.45ZM44.6117 20.6L45.1915 21.4148L45.1944 21.4127L44.6117 20.6ZM43.4617 29.25L42.7427 29.945L42.7486 29.9511L42.7546 29.9571L43.4617 29.25ZM46.8117 31.55L46.4148 32.4679L46.4296 32.4742L46.4446 32.4802L46.8117 31.55ZM50.6117 32.95L50.288 33.8962L50.2993 33.9L50.3106 33.9036L50.6117 32.95ZM53.7617 34.05L53.3903 34.9785L53.4123 34.9873L53.4346 34.995L53.7617 34.05ZM56.3617 35.2L56.8417 34.3227L56.8358 34.3195L56.3617 35.2ZM54.6117 43.55L54.928 44.4987L54.9344 44.4965L54.6117 43.55ZM67.5117 32C69.3749 32 71.3845 31.9153 73.5396 31.747L73.3838 29.753C71.2723 29.918 69.3152 30 67.5117 30V32ZM73.5384 31.7471C75.6882 31.5817 77.2231 31.3939 78.0364 31.1615L77.487 29.2385C76.9003 29.4061 75.5686 29.585 73.385 29.7529L73.5384 31.7471ZM78.754 30.324C79.2837 26.0865 79.9873 22.9564 80.8373 20.8786L78.9862 20.1214C78.0362 22.4436 77.3064 25.7802 76.7694 30.076L78.754 30.324ZM80.8402 20.8714C81.0095 20.4482 81.174 20.2186 81.2957 20.1045C81.3965 20.01 81.458 20 81.5117 20V18C80.2124 18 79.43 19.0117 78.9832 20.1286L80.8402 20.8714ZM81.5117 20C81.6814 20 81.7891 20.0216 81.8517 20.0424C81.9095 20.0617 81.9268 20.0793 81.9296 20.0821C81.9324 20.0849 81.95 20.1022 81.9693 20.16C81.9902 20.2226 82.0117 20.3303 82.0117 20.5H84.0117C84.0117 19.8459 83.8475 19.1716 83.3438 18.6679C82.8401 18.1642 82.1659 18 81.5117 18V20ZM82.0117 20.5C82.0117 20.4664 82.0105 20.5505 81.9202 20.8377C81.8401 21.0926 81.7139 21.4352 81.5356 21.8727L83.3878 22.6273C83.5762 22.1648 83.725 21.7658 83.8282 21.4373C83.9213 21.1412 84.0117 20.8002 84.0117 20.5H82.0117ZM81.5356 21.8727C81.1238 22.8837 80.6923 24.7333 80.2274 27.3233L82.196 27.6767C82.6645 25.0667 83.0663 23.4163 83.3878 22.6273L81.5356 21.8727ZM80.2279 27.3211C79.755 29.9218 79.5117 32.1523 79.5117 34H81.5117C81.5117 32.3143 81.7351 30.2116 82.1956 27.6789L80.2279 27.3211ZM79.5117 34C79.5117 35.8277 79.684 37.8623 80.023 40.0998L82.0004 39.8002C81.6728 37.6377 81.5117 35.7056 81.5117 34H79.5117ZM80.023 40.0998C80.3521 42.2716 80.6126 43.7255 80.8072 44.3483L82.7162 43.7517C82.5775 43.3078 82.338 42.0284 82.0004 39.8002L80.023 40.0998ZM80.813 44.3662C80.8931 44.6065 80.9482 44.788 80.9821 44.917C80.9991 44.9815 81.0084 45.0237 81.0128 45.0477C81.0188 45.08 81.0117 45.0559 81.0117 45H83.0117C83.0117 44.7897 82.9573 44.5638 82.9163 44.408C82.8669 44.2203 82.797 43.9935 82.7104 43.7338L80.813 44.3662ZM81.0117 45C81.0117 45.1697 80.9902 45.2774 80.9693 45.34C80.95 45.3978 80.9324 45.4151 80.9296 45.4179C80.9268 45.4207 80.9095 45.4383 80.8517 45.4576C80.7891 45.4784 80.6814 45.5 80.5117 45.5V47.5C81.1659 47.5 81.8401 47.3358 82.3438 46.8321C82.8475 46.3284 83.0117 45.6541 83.0117 45H81.0117ZM80.5117 45.5C80.5564 45.5 80.4689 45.5211 80.2307 45.3067L78.8928 46.7933C79.3212 47.1789 79.867 47.5 80.5117 47.5V45.5ZM80.2261 45.3026C80.1001 45.1906 79.9242 44.9475 79.7547 44.4672L77.8687 45.1328C78.0992 45.7858 78.4234 46.3761 78.8974 46.7974L80.2261 45.3026ZM79.7711 44.5178C79.6265 44.0264 79.3696 42.6657 78.9993 40.3426L77.0242 40.6574C77.3872 42.9343 77.6636 44.4402 77.8524 45.0822L79.7711 44.5178ZM79.0014 40.3566C78.674 38.0975 78.5117 35.9791 78.5117 34H76.5117C76.5117 36.0875 76.6828 38.3025 77.0221 40.6434L79.0014 40.3566ZM78.5117 34V33.3H76.5117V34H78.5117ZM77.3473 32.3136C74.6171 32.7686 71.3416 33 67.5117 33V35C71.4152 35 74.8063 34.7647 77.6761 34.2864L77.3473 32.3136ZM66.5124 34.0357C66.5791 35.9048 66.6419 37.3787 66.7007 38.4546C66.7577 39.4974 66.8141 40.2389 66.8788 40.5843L68.8446 40.2157C68.8094 40.0278 68.7574 39.4359 68.6977 38.3454C68.6399 37.288 68.5777 35.8286 68.5111 33.9643L66.5124 34.0357ZM66.8811 40.5961C66.9797 41.0889 67.0117 41.3727 67.0117 41.5H69.0117C69.0117 41.1607 68.9437 40.7111 68.8423 40.2039L66.8811 40.5961ZM67.0117 41.5C67.0117 41.6697 66.9902 41.7774 66.9693 41.84C66.95 41.8978 66.9324 41.9151 66.9296 41.9179C66.9268 41.9207 66.9095 41.9383 66.8517 41.9576C66.7891 41.9784 66.6814 42 66.5117 42V44C67.1659 44 67.8401 43.8358 68.3438 43.3321C68.8475 42.8284 69.0117 42.1541 69.0117 41.5H67.0117ZM66.5117 42C66.2983 42 66.2349 41.9467 66.2168 41.9304C66.1875 41.9041 66.1004 41.8061 66.0437 41.5112L64.0797 41.8888C64.1897 42.4606 64.4277 43.0125 64.8817 43.4196C65.3469 43.8367 65.9251 44 66.5117 44V42ZM66.0437 41.5112C65.8941 40.7329 65.7123 38.2557 65.5106 33.9532L63.5128 34.0468C63.7111 38.2776 63.8961 40.9338 64.0797 41.8888L66.0437 41.5112ZM64.5117 33C64.3372 33 64.2268 32.9509 64.1188 32.8429L62.7046 34.2571C63.1966 34.7491 63.8195 35 64.5117 35V33ZM64.1591 32.8856C64.0546 32.768 64.0117 32.6541 64.0117 32.5H62.0117C62.0117 33.1459 62.2356 33.732 62.6643 34.2144L64.1591 32.8856ZM64.0117 32.5C64.0117 32.3303 64.0333 32.2226 64.0542 32.16C64.0734 32.1022 64.091 32.0849 64.0938 32.0821C64.0967 32.0793 64.1139 32.0617 64.1717 32.0424C64.2343 32.0216 64.3421 32 64.5117 32V30C63.8576 30 63.1833 30.1642 62.6796 30.6679C62.1759 31.1716 62.0117 31.8459 62.0117 32.5H64.0117ZM65.5117 31V22H63.5117V31H65.5117ZM65.5117 22C65.5117 20.7275 65.4262 19.6235 65.2423 18.7039L63.2811 19.0961C63.4305 19.8431 63.5117 20.8059 63.5117 22H65.5117ZM65.2423 18.7039C65.0732 17.8581 65.0117 17.3859 65.0117 17.2H63.0117C63.0117 17.6141 63.117 18.2752 63.2811 19.0961L65.2423 18.7039ZM65.0117 17.2C65.0117 17.0303 65.0333 16.9226 65.0542 16.86C65.0734 16.8022 65.091 16.7849 65.0938 16.7821C65.0967 16.7793 65.1139 16.7617 65.1717 16.7424C65.2343 16.7216 65.3421 16.7 65.5117 16.7V14.7C64.8576 14.7 64.1833 14.8642 63.6796 15.3679C63.1759 15.8716 63.0117 16.5459 63.0117 17.2H65.0117ZM65.5117 16.7C65.5713 16.7 65.6005 16.7102 65.6134 16.7159C65.6258 16.7213 65.6491 16.7338 65.6832 16.7715C65.7622 16.8586 65.8877 17.0697 65.9848 17.5137L67.9386 17.0863C67.8024 16.4636 67.5696 15.8747 67.1652 15.4285C66.7299 14.9482 66.1546 14.7 65.5117 14.7V16.7ZM65.9718 17.4414C66.3431 20.0408 66.5117 21.522 66.5117 22H68.5117C68.5117 21.3447 68.3137 19.6925 67.9517 17.1586L65.9718 17.4414ZM66.5117 22V31H68.5117V22H66.5117ZM40.5117 44C40.3421 44 40.2343 43.9784 40.1717 43.9576C40.1139 43.9383 40.0967 43.9207 40.0938 43.9179C40.091 43.9151 40.0734 43.8978 40.0542 43.84C40.0333 43.7774 40.0117 43.6697 40.0117 43.5H38.0117C38.0117 44.1541 38.1759 44.8284 38.6796 45.3321C39.1833 45.8358 39.8576 46 40.5117 46V44ZM40.0117 43.5C40.0117 43.3303 40.0333 43.2226 40.0542 43.16C40.0734 43.1022 40.091 43.0849 40.0938 43.0821C40.0967 43.0793 40.1139 43.0617 40.1717 43.0424C40.2343 43.0216 40.3421 43 40.5117 43V41C39.8576 41 39.1833 41.1642 38.6796 41.6679C38.1759 42.1716 38.0117 42.8459 38.0117 43.5H40.0117ZM40.5117 43C47.1715 43 51.934 42.5081 54.6331 41.4285L53.8903 39.5715C51.5894 40.4919 47.1853 41 40.5117 41V43ZM54.6331 41.4285C55.2583 41.1784 55.8051 40.8949 56.2122 40.5575C56.6134 40.2252 57.0117 39.7245 57.0117 39.05H55.0117C55.0117 38.8755 55.1184 38.8665 54.9362 39.0175C54.76 39.1635 54.4318 39.3549 53.8903 39.5715L54.6331 41.4285ZM57.0117 39.05C57.0117 37.918 56.0742 37.2207 55.1945 36.7985L54.329 38.6015C54.6841 38.772 54.8745 38.9187 54.9655 39.0169C55.0434 39.1011 55.0117 39.1061 55.0117 39.05H57.0117ZM55.2089 36.8056C54.3375 36.3698 52.9095 35.834 50.973 35.1997L50.3504 37.1003C52.2806 37.7326 53.586 38.2302 54.3145 38.5944L55.2089 36.8056ZM50.9779 35.2013C49.0868 34.5709 47.6692 34.0484 46.7093 33.6324L45.9141 35.4676C46.9542 35.9183 48.4366 36.4624 50.3455 37.0987L50.9779 35.2013ZM46.6972 33.6273C44.369 32.6545 42.7032 31.4633 41.6217 30.093C40.5519 28.7375 40.0117 27.1545 40.0117 25.3H38.0117C38.0117 27.5788 38.6882 29.6042 40.0517 31.332C41.4036 33.045 43.3878 34.4121 45.9262 35.4727L46.6972 33.6273ZM40.0117 25.3C40.0117 22.94 41.0101 20.9516 43.1295 19.2863L41.8939 17.7137C39.3466 19.7151 38.0117 22.26 38.0117 25.3H40.0117ZM43.1364 19.2809C45.2756 17.5695 47.8496 16.7 50.9117 16.7V14.7C47.4405 14.7 44.4145 15.6971 41.887 17.7191L43.1364 19.2809ZM50.9117 16.7C52.4986 16.7 53.7529 17.1634 54.7474 18.0474L56.0761 16.5526C54.6706 15.3032 52.9248 14.7 50.9117 14.7V16.7ZM54.7576 18.0564C55.7929 18.9518 56.2617 19.9678 56.2617 21.15H58.2617C58.2617 19.3322 57.4972 17.7816 56.0659 16.5436L54.7576 18.0564ZM56.2617 21.15C56.2617 22.357 55.8043 23.4432 54.8046 24.4429L56.2188 25.8571C57.5524 24.5235 58.2617 22.943 58.2617 21.15H56.2617ZM54.8046 24.4429C54.2372 25.0103 53.7873 25.4068 53.4475 25.6545C53.2777 25.7783 53.1562 25.8496 53.0779 25.8866C52.9887 25.9288 53.0114 25.9 53.1117 25.9V27.9C53.4287 27.9 53.7139 27.7983 53.933 27.6946C54.1631 27.5858 54.3957 27.4384 54.6259 27.2705C55.0862 26.9349 55.6195 26.4564 56.2188 25.8571L54.8046 24.4429ZM53.1117 25.9C52.9421 25.9 52.8343 25.8784 52.7717 25.8576C52.7139 25.8383 52.6967 25.8207 52.6938 25.8179C52.691 25.8151 52.6734 25.7978 52.6542 25.74C52.6333 25.6774 52.6117 25.5696 52.6117 25.4H50.6117C50.6117 26.0541 50.7759 26.7284 51.2796 27.2321C51.7833 27.7358 52.4576 27.9 53.1117 27.9V25.9ZM52.6117 25.4C52.6117 25.4839 52.5853 25.4174 52.7688 25.1422C52.9344 24.8937 53.209 24.5669 53.6188 24.1571L52.2046 22.7429C51.7478 23.1997 51.3724 23.6313 51.1047 24.0328C50.8548 24.4076 50.6117 24.8828 50.6117 25.4H52.6117ZM53.6188 24.1571C54.0935 23.6825 54.4826 23.2328 54.7594 22.8125C55.0208 22.4155 55.2617 21.927 55.2617 21.4H53.2617C53.2617 21.3396 53.2776 21.4261 53.0891 21.7125C52.9159 21.9755 52.63 22.3175 52.2046 22.7429L53.6188 24.1571ZM55.2617 21.4C55.2617 20.2909 54.8025 19.3528 53.9314 18.6651L52.6921 20.2349C53.0876 20.5472 53.2617 20.9091 53.2617 21.4H55.2617ZM53.9519 18.6818C53.1325 17.999 52.1049 17.7 50.9617 17.7V19.7C51.7518 19.7 52.2909 19.901 52.6715 20.2182L53.9519 18.6818ZM50.9617 17.7C48.3153 17.7 45.9879 18.3828 44.029 19.7873L45.1944 21.4127C46.7688 20.2839 48.6748 19.7 50.9617 19.7V17.7ZM44.032 19.7852C42.096 21.1627 41.0117 22.9415 41.0117 25.1H43.0117C43.0117 23.7252 43.6608 22.5039 45.1915 21.4148L44.032 19.7852ZM41.0117 25.1C41.0117 27.0528 41.5506 28.7118 42.7427 29.945L44.1807 28.555C43.4395 27.7882 43.0117 26.6806 43.0117 25.1H41.0117ZM42.7546 29.9571C43.8391 31.0415 45.0597 31.8819 46.4148 32.4679L47.2086 30.6321C46.0971 30.1515 45.0844 29.4585 44.1688 28.5429L42.7546 29.9571ZM46.4446 32.4802C47.7253 32.9857 49.0065 33.4577 50.288 33.8962L50.9354 32.0038C49.6836 31.5756 48.4314 31.1143 47.1789 30.6198L46.4446 32.4802ZM50.3106 33.9036C51.5636 34.2993 52.5882 34.6576 53.3903 34.9785L54.1331 33.1215C53.2686 32.7757 52.1932 32.4007 50.9128 31.9964L50.3106 33.9036ZM53.4346 34.995C54.2471 35.2762 55.0647 35.6374 55.8876 36.0805L56.8358 34.3195C55.9254 33.8293 55.0097 33.4238 54.0888 33.105L53.4346 34.995ZM55.8817 36.0773C57.4344 36.9268 58.0117 37.9061 58.0117 39H60.0117C60.0117 36.9606 58.8224 35.4065 56.8417 34.3227L55.8817 36.0773ZM58.0117 39C58.0117 39.7466 57.7534 40.3877 57.1929 40.9673C56.6093 41.5708 55.6707 42.1325 54.289 42.6035L54.9344 44.4965C56.4861 43.9675 57.7475 43.2709 58.6306 42.3577C59.5367 41.4206 60.0117 40.2867 60.0117 39H58.0117ZM54.2955 42.6013C51.5588 43.5135 46.9973 44 40.5117 44V46C47.0262 46 51.8647 45.5198 54.9279 44.4987L54.2955 42.6013ZM127.16 17.75L126.164 17.8405L126.171 17.9193L126.19 17.9959L127.16 17.75ZM127.11 17.2H126.11V17.2454L126.114 17.2905L127.11 17.2ZM127.51 16.1L126.845 15.3526L126.823 15.3721L126.803 15.3929L127.51 16.1ZM130.11 17.2L131.081 16.9636L131.079 16.953L131.076 16.9423L130.11 17.2ZM130.21 30.85L131.186 31.0669L131.187 31.0641L130.21 30.85ZM127.96 37.7L128.871 38.1127L128.873 38.1074L127.96 37.7ZM124.06 42.95L123.418 42.1831L124.06 42.95ZM114.51 43.7L113.879 44.4761L113.885 44.4808L113.891 44.4855L114.51 43.7ZM112.21 39.95L113.171 39.6753L113.169 39.6673L113.167 39.6593L112.21 39.95ZM112.01 19.7L111.032 19.4905L111.03 19.4999L111.028 19.5094L112.01 19.7ZM112.61 18.6L113.274 19.3474V19.3474L112.61 18.6ZM115.01 19.7L115.998 19.856L116.01 19.7785V19.7H115.01ZM114.86 20.65L115.84 20.8484L115.844 20.8272L115.848 20.806L114.86 20.65ZM114.06 33.4L113.06 33.4357L113.06 33.437L114.06 33.4ZM114.36 36.55L113.369 36.6876L113.371 36.7033L113.374 36.719L114.36 36.55ZM115.11 39.45L114.179 39.8144L114.181 39.8215L114.184 39.8286L115.11 39.45ZM116.46 41.35L115.795 42.0974L115.807 42.108L115.82 42.1182L116.46 41.35ZM123.56 39.2L124.356 39.8044L124.361 39.7978L123.56 39.2ZM126.86 32.1L125.896 31.8329L125.893 31.8438L126.86 32.1ZM99.3098 41L98.3519 41.2873L99.3974 44.7724L100.28 41.2425L99.3098 41ZM100.06 37.9L99.095 37.6369L99.0894 37.6575L99.0846 37.6784L100.06 37.9ZM100.46 36.25L99.4759 36.0711L100.46 36.25ZM100.61 35.4L99.6611 35.0838L99.6363 35.1582L99.6234 35.2356L100.61 35.4ZM100.76 34.6L101.755 34.6995V34.6995L100.76 34.6ZM100.81 33.95L99.8396 33.7075L99.8098 33.8269V33.95H100.81ZM100.91 33.05L101.907 33.1213L101.908 33.1165L100.91 33.05ZM101.16 30.55L102.153 30.6635L102.154 30.6604L101.16 30.55ZM102.06 25.1L103.042 25.2883L103.042 25.2859L102.06 25.1ZM103.06 20.5L104.008 20.8162L104.01 20.8122L103.06 20.5ZM106.56 19.85L105.665 19.4028L106.56 19.85ZM105.86 21.5L104.911 21.1838L105.86 21.5ZM104.96 25.65L103.978 25.4622L103.976 25.4692L103.975 25.4762L104.96 25.65ZM104.06 32.05L103.065 31.9505L104.06 32.05ZM103.46 36.35L102.485 36.1251L102.481 36.1431L102.478 36.1612L103.46 36.35ZM101.76 43.5L100.789 43.2594L100.786 43.2728L101.76 43.5ZM97.5598 44.05L96.8165 44.719L96.825 44.7285L96.8338 44.7377L97.5598 44.05ZM96.4098 41.8L97.3904 41.6039L97.3824 41.5642L97.3713 41.5253L96.4098 41.8ZM95.1098 35.1L96.0924 34.9143L96.0924 34.9143L95.1098 35.1ZM90.1098 24.6L89.11 24.625L89.1103 24.6333L90.1098 24.6ZM87.2598 28.6L86.2603 28.6312L87.2598 28.6ZM88.1098 16.95L87.3738 16.2729L87.3664 16.2811L87.3591 16.2894L88.1098 16.95ZM94.6098 19.2L93.6597 19.5122L93.6627 19.521L94.6098 19.2ZM97.3598 31.35L96.3774 31.5369L96.3786 31.543L97.3598 31.35ZM128.156 17.6595L128.106 17.1095L126.114 17.2905L126.164 17.8405L128.156 17.6595ZM128.11 17.2C128.11 16.9318 128.18 16.8438 128.217 16.8071L126.803 15.3929C126.306 15.8895 126.11 16.5349 126.11 17.2H128.11ZM128.174 16.8474C128.33 16.7086 128.419 16.7 128.46 16.7V14.7C127.834 14.7 127.289 14.9581 126.845 15.3526L128.174 16.8474ZM128.46 16.7C128.66 16.7 128.756 16.7529 128.825 16.8149C128.912 16.8943 129.041 17.0732 129.144 17.4577L131.076 16.9423C130.912 16.3268 130.633 15.7557 130.17 15.3351C129.688 14.8971 129.093 14.7 128.46 14.7V16.7ZM129.138 17.4363C129.723 19.8411 130.01 22.0441 130.01 24.05H132.01C132.01 21.8559 131.696 19.4922 131.081 16.9636L129.138 17.4363ZM130.01 24.05C130.01 26.0662 129.754 28.2603 129.233 30.6359L131.187 31.0641C131.733 28.573 132.01 26.2338 132.01 24.05H130.01ZM129.234 30.6331C128.714 32.97 127.985 35.1893 127.047 37.2926L128.873 38.1074C129.868 35.8774 130.639 33.53 131.186 31.0669L129.234 30.6331ZM127.049 37.2873C126.138 39.2976 124.925 40.922 123.418 42.1831L124.701 43.7169C126.461 42.2446 127.848 40.369 128.871 38.1127L127.049 37.2873ZM123.418 42.1831C121.934 43.4248 120.421 44 118.86 44V46C120.965 46 122.919 45.2085 124.701 43.7169L123.418 42.1831ZM118.86 44C117.219 44 116.007 43.6068 115.129 42.9145L113.891 44.4855C115.212 45.5265 116.9 46 118.86 46V44ZM115.14 42.9239C114.267 42.2142 113.595 41.1585 113.171 39.6753L111.248 40.2247C111.758 42.0081 112.619 43.4524 113.879 44.4761L115.14 42.9239ZM113.167 39.6593C112.403 37.1463 112.01 34.0831 112.01 30.45H110.01C110.01 34.2169 110.416 37.487 111.253 40.2407L113.167 39.6593ZM112.01 30.45C112.01 26.7764 112.338 23.2571 112.991 19.8906L111.028 19.5094C110.348 23.0096 110.01 26.657 110.01 30.45H112.01ZM112.988 19.9095C113.052 19.6105 113.162 19.4475 113.274 19.3474L111.945 17.8526C111.458 18.2858 111.168 18.8562 111.032 19.4905L112.988 19.9095ZM113.274 19.3474C113.364 19.2679 113.428 19.2305 113.466 19.2138C113.484 19.2057 113.496 19.2025 113.502 19.2012C113.507 19.2 113.509 19.2 113.51 19.2V17.2C112.892 17.2 112.366 17.479 111.945 17.8526L113.274 19.3474ZM113.51 19.2C113.679 19.2 113.787 19.2216 113.85 19.2424C113.908 19.2617 113.925 19.2793 113.928 19.2821C113.93 19.2849 113.948 19.3022 113.967 19.36C113.988 19.4226 114.01 19.5303 114.01 19.7H116.01C116.01 19.0459 115.846 18.3716 115.342 17.8679C114.838 17.3642 114.164 17.2 113.51 17.2V19.2ZM114.022 19.544L113.872 20.494L115.848 20.806L115.998 19.856L114.022 19.544ZM113.88 20.4516C113.302 23.305 113.01 25.9722 113.01 28.45H115.01C115.01 26.1278 115.284 23.595 115.84 20.8484L113.88 20.4516ZM113.01 28.45C113.01 30.816 113.026 32.4824 113.06 33.4357L115.059 33.3643C115.027 32.451 115.01 30.8173 115.01 28.45H113.01ZM113.06 33.437C113.095 34.3798 113.199 35.4648 113.369 36.6876L115.35 36.4124C115.187 35.2352 115.091 34.2201 115.059 33.363L113.06 33.437ZM113.374 36.719C113.581 37.9261 113.846 38.9638 114.179 39.8144L116.041 39.0856C115.774 38.4029 115.538 37.5072 115.345 36.381L113.374 36.719ZM114.184 39.8286C114.543 40.7051 115.083 41.4641 115.795 42.0974L117.124 40.6026C116.637 40.1693 116.277 39.6615 116.035 39.0714L114.184 39.8286ZM115.82 42.1182C116.612 42.7785 117.559 43.1 118.61 43.1V41.1C117.993 41.1 117.508 40.9215 117.1 40.5818L115.82 42.1182ZM118.61 43.1C120.852 43.1 122.767 41.8994 124.356 39.8044L122.763 38.5956C121.419 40.3673 120.035 41.1 118.61 41.1V43.1ZM124.361 39.7978C125.916 37.7133 127.066 35.226 127.826 32.3562L125.893 31.8438C125.187 34.5074 124.137 36.7534 122.758 38.6022L124.361 39.7978ZM127.823 32.367C128.608 29.5354 129.01 26.9272 129.01 24.55H127.01C127.01 26.7062 126.645 29.1313 125.896 31.833L127.823 32.367ZM129.01 24.55C129.01 22.1669 128.716 19.8176 128.129 17.5041L126.19 17.9959C126.737 20.149 127.01 22.3331 127.01 24.55H129.01ZM100.28 41.2425C100.614 39.9069 100.866 38.8654 101.035 38.1216L99.0846 37.6784C98.9203 38.4012 98.6724 39.4264 98.3396 40.7575L100.28 41.2425ZM101.025 38.1631C101.226 37.4243 101.369 36.84 101.444 36.4289L99.4759 36.0711C99.4173 36.3934 99.2935 36.909 99.095 37.6369L101.025 38.1631ZM101.444 36.4289C101.511 36.0607 101.562 35.7717 101.596 35.5644L99.6234 35.2356C99.5912 35.4283 99.5423 35.706 99.4759 36.0711L101.444 36.4289ZM101.558 35.7162C101.658 35.4173 101.718 35.0689 101.755 34.6995L99.7647 34.5005C99.735 34.7978 99.6948 34.9827 99.6611 35.0838L101.558 35.7162ZM101.755 34.6995C101.787 34.3785 101.81 34.1095 101.81 33.95H99.8098C99.8098 33.9492 99.8098 33.9524 99.8095 33.9607C99.8092 33.9688 99.8088 33.9798 99.808 33.9943C99.8065 34.0235 99.804 34.062 99.8002 34.1108C99.7927 34.2086 99.781 34.3378 99.7647 34.5005L101.755 34.6995ZM101.78 34.1925C101.838 33.9582 101.876 33.565 101.907 33.1212L99.9123 32.9788C99.8961 33.2053 99.8805 33.3826 99.8659 33.5146C99.8498 33.6597 99.8388 33.7108 99.8396 33.7075L101.78 34.1925ZM101.908 33.1165C101.939 32.6423 102.02 31.8297 102.153 30.6635L100.166 30.4365C100.033 31.6037 99.947 32.4577 99.912 32.9835L101.908 33.1165ZM102.154 30.6604C102.282 29.5015 102.576 27.7168 103.042 25.2883L101.078 24.9116C100.61 27.3499 100.304 29.1985 100.166 30.4396L102.154 30.6604ZM103.042 25.2859C103.514 22.7947 103.835 21.3378 104.008 20.8162L102.111 20.1838C101.885 20.8622 101.539 22.472 101.077 24.9141L103.042 25.2859ZM104.01 20.8122C104.381 19.6816 104.741 18.914 105.066 18.4485C105.409 17.9589 105.569 18 105.51 18V16C104.584 16 103.902 16.6244 103.428 17.3015C102.937 18.0027 102.505 18.9851 102.11 20.1878L104.01 20.8122ZM105.51 18C105.679 18 105.787 18.0216 105.85 18.0424C105.908 18.0617 105.925 18.0793 105.928 18.0821C105.93 18.0849 105.948 18.1022 105.967 18.16C105.988 18.2226 106.01 18.3303 106.01 18.5H108.01C108.01 17.8459 107.846 17.1716 107.342 16.6679C106.838 16.1642 106.164 16 105.51 16V18ZM106.01 18.5C106.01 18.4987 106.007 18.5712 105.949 18.7463C105.893 18.9122 105.802 19.1293 105.665 19.4028L107.454 20.2972C107.758 19.6894 108.01 19.0548 108.01 18.5H106.01ZM105.665 19.4028C105.35 20.0343 105.096 20.6287 104.911 21.1838L106.808 21.8162C106.957 21.3713 107.17 20.8657 107.454 20.2972L105.665 19.4028ZM104.911 21.1838C104.718 21.7621 104.405 23.224 103.978 25.4622L105.942 25.8378C106.381 23.5426 106.668 22.2379 106.808 21.8162L104.911 21.1838ZM103.975 25.4762C103.571 27.7641 103.268 29.9224 103.065 31.9505L105.055 32.1495C105.252 30.1776 105.548 28.0693 105.945 25.8238L103.975 25.4762ZM103.065 31.9505C102.865 33.9473 102.67 35.3256 102.485 36.1251L104.434 36.5749C104.65 35.6411 104.854 34.1527 105.055 32.1495L103.065 31.9505ZM102.478 36.1612C102.317 36.9954 101.759 39.3476 100.789 43.2594L102.73 43.7406C103.694 39.8524 104.269 37.438 104.442 36.5388L102.478 36.1612ZM100.786 43.2728C100.694 43.6686 100.574 43.8466 100.503 43.9179C100.457 43.9636 100.403 44 100.26 44V46C100.884 46 101.463 45.7864 101.917 45.3321C102.346 44.9034 102.593 44.3314 102.734 43.7272L100.786 43.2728ZM100.26 44C99.2281 44 98.6345 43.7304 98.2857 43.3623L96.8338 44.7377C97.685 45.6362 98.8914 46 100.26 46V44ZM98.3031 43.381C97.8162 42.8401 97.5198 42.2513 97.3904 41.6039L95.4292 41.9961C95.633 43.0154 96.1033 43.9265 96.8165 44.719L98.3031 43.381ZM97.3713 41.5253C97.3736 41.5332 97.3662 41.5055 97.3451 41.4077C97.3265 41.322 97.302 41.2037 97.2711 41.0513C97.2094 40.7471 97.1246 40.3169 97.0165 39.7595C96.8003 38.6453 96.4923 37.0305 96.0924 34.9143L94.1272 35.2857C94.5272 37.4028 94.8359 39.0214 95.0531 40.1405C95.2628 41.2212 95.3993 41.9035 95.4482 42.0747L97.3713 41.5253ZM96.0924 34.9143C95.0582 29.4431 94.1955 25.3199 93.5049 22.5575C93.1609 21.1814 92.8523 20.113 92.5783 19.3764C92.4436 19.0144 92.3007 18.6861 92.1441 18.4319C92.067 18.3067 91.9597 18.1547 91.8144 18.023C91.677 17.8985 91.4022 17.7 91.0098 17.7V19.7C90.7007 19.7 90.5146 19.5442 90.4715 19.5051C90.4205 19.4589 90.413 19.435 90.4411 19.4806C90.4949 19.568 90.5842 19.7522 90.7038 20.0736C90.9381 20.7036 91.2253 21.6853 91.5646 23.0425C92.2407 25.7467 93.0947 29.8236 94.1272 35.2857L96.0924 34.9143ZM91.0098 17.7C90.3851 17.7 89.8025 17.9581 89.4277 18.5203C89.1006 19.0109 89.0098 19.6205 89.0098 20.2H91.0098C91.0098 20.0024 91.0265 19.8594 91.0485 19.7607C91.0705 19.6616 91.0931 19.6278 91.0918 19.6297C91.0861 19.6383 91.0618 19.667 91.0195 19.6882C90.9813 19.7072 90.9687 19.7 91.0098 19.7V17.7ZM89.0098 20.2C89.0098 20.4831 89.0437 21.9692 89.1101 24.625L91.1095 24.575C91.0425 21.8975 91.0098 20.4503 91.0098 20.2H89.0098ZM89.1103 24.6333C89.3768 32.629 89.5098 38.9163 89.5098 43.5H91.5098C91.5098 38.8837 91.376 32.571 91.1092 24.5667L89.1103 24.6333ZM89.5098 43.5C89.5098 43.6697 89.4882 43.7774 89.4673 43.84C89.4481 43.8978 89.4305 43.9151 89.4277 43.9179C89.4248 43.9207 89.4076 43.9383 89.3498 43.9576C89.2871 43.9784 89.1794 44 89.0098 44V46C89.6639 46 90.3382 45.8358 90.8419 45.3321C91.3456 44.8284 91.5098 44.1541 91.5098 43.5H89.5098ZM89.0098 44C88.8401 44 88.7324 43.9784 88.6697 43.9576C88.6119 43.9383 88.5947 43.9207 88.5919 43.9179C88.589 43.9151 88.5715 43.8978 88.5522 43.84C88.5313 43.7774 88.5098 43.6697 88.5098 43.5H86.5098C86.5098 44.1541 86.674 44.8284 87.1777 45.3321C87.6813 45.8358 88.3556 46 89.0098 46V44ZM88.5098 43.5C88.5098 38.8881 88.4262 33.9109 88.2593 28.5688L86.2603 28.6312C86.4266 33.9558 86.5098 38.9119 86.5098 43.5H88.5098ZM88.2593 28.5688C88.0921 23.2185 88.0098 20.4459 88.0098 20.2H86.0098C86.0098 20.4874 86.0941 23.3148 86.2603 28.6312L88.2593 28.5688ZM88.0098 20.2C88.0098 19.0585 88.3188 18.2262 88.8605 17.6106L87.3591 16.2894C86.4341 17.3405 86.0098 18.6748 86.0098 20.2H88.0098ZM88.8457 17.6271C89.4166 17.0065 90.1132 16.7 91.0098 16.7V14.7C89.573 14.7 88.3363 15.2268 87.3738 16.2729L88.8457 17.6271ZM91.0098 16.7C91.559 16.7 92.0192 16.8851 92.4377 17.292C92.8805 17.7225 93.305 18.4325 93.6597 19.5122L95.5598 18.8878C95.1479 17.6342 94.5891 16.5942 93.8318 15.858C93.0503 15.0982 92.0938 14.7 91.0098 14.7V16.7ZM93.6627 19.521C94.3033 21.4108 95.2085 25.3919 96.3774 31.5369L98.3421 31.1631C97.1777 25.0415 96.2496 20.9225 95.5568 18.879L93.6627 19.521ZM96.3786 31.543C96.9787 34.5935 97.4416 36.9247 97.7671 38.5356C98.0844 40.1056 98.2846 41.0629 98.3519 41.2873L100.268 40.7127C100.269 40.7183 100.266 40.7074 100.256 40.6674C100.248 40.6315 100.236 40.5829 100.222 40.5201C100.194 40.3946 100.157 40.2227 100.11 40.0027C100.017 39.5632 99.8898 38.9426 99.7275 38.1394C99.403 36.5337 98.9409 34.2065 98.341 31.157L96.3786 31.543ZM139.208 22.6L138.315 22.1496L138.313 22.1528L139.208 22.6ZM136.208 21.85L135.325 21.3794L135.319 21.391L135.313 21.4028L136.208 21.85ZM141.008 12.1C141.008 15.2087 140.129 18.5544 138.315 22.1496L140.101 23.0504C142.02 19.2456 143.008 15.5913 143.008 12.1H141.008ZM138.313 22.1528C137.848 23.0828 137.534 23.1 137.508 23.1V25.1C138.748 25.1 139.567 24.1172 140.102 23.0472L138.313 22.1528ZM137.508 23.1C137.338 23.1 137.23 23.0784 137.168 23.0576C137.11 23.0383 137.093 23.0207 137.09 23.0179C137.087 23.0151 137.07 22.9978 137.05 22.94C137.029 22.8774 137.008 22.7696 137.008 22.6H135.008C135.008 23.2541 135.172 23.9284 135.676 24.4321C136.179 24.9358 136.854 25.1 137.508 25.1V23.1ZM137.008 22.6C137.008 22.5589 137.02 22.4624 137.102 22.2972L135.313 21.4028C135.129 21.7709 135.008 22.1744 135.008 22.6H137.008ZM137.09 22.3206C139.01 18.7207 140.008 15.3085 140.008 12.1H138.008C138.008 14.8915 137.139 17.9793 135.325 21.3794L137.09 22.3206ZM140.008 12.1C140.008 11.9303 140.029 11.8226 140.05 11.76C140.07 11.7022 140.087 11.6849 140.09 11.6821C140.093 11.6793 140.11 11.6617 140.168 11.6424C140.23 11.6216 140.338 11.6 140.508 11.6V9.6C139.854 9.6 139.179 9.76421 138.676 10.2679C138.172 10.7716 138.008 11.4459 138.008 12.1H140.008ZM140.508 11.6C140.677 11.6 140.785 11.6216 140.848 11.6424C140.906 11.6617 140.923 11.6793 140.926 11.6821C140.929 11.6849 140.946 11.7022 140.965 11.76C140.986 11.8226 141.008 11.9303 141.008 12.1H143.008C143.008 11.4459 142.844 10.7716 142.34 10.2679C141.836 9.76421 141.162 9.6 140.508 9.6V11.6ZM165.248 40.5L165.619 41.4285L165.248 40.5ZM165.748 37.7L165.301 38.5944L165.308 38.598L165.315 38.6015L165.748 37.7ZM161.648 36.15L161.332 37.0987L161.337 37.1003L161.648 36.15ZM157.298 34.55L157.696 33.6324L157.684 33.6273L157.298 34.55ZM153.498 18.5L154.116 19.2863L154.123 19.2809L153.498 18.5ZM166.398 17.3L165.734 18.0475L165.744 18.0564L166.398 17.3ZM166.498 25.15L165.791 24.4429L166.498 25.15ZM164.298 19.45L163.658 20.2182L163.668 20.2267L163.678 20.2349L164.298 19.45ZM155.598 20.6L156.178 21.4148L156.181 21.4127L155.598 20.6ZM154.448 29.25L153.729 29.945L153.735 29.9511L153.741 29.9571L154.448 29.25ZM157.798 31.55L157.401 32.4679L157.416 32.4742L157.431 32.4802L157.798 31.55ZM161.598 32.95L161.274 33.8962L161.286 33.9L161.297 33.9036L161.598 32.95ZM164.748 34.05L164.377 34.9785L164.399 34.9873L164.421 34.995L164.748 34.05ZM167.348 35.2L167.828 34.3227L167.822 34.3195L167.348 35.2ZM165.598 43.55L165.914 44.4987L165.921 44.4965L165.598 43.55ZM151.498 44C151.328 44 151.221 43.9784 151.158 43.9576C151.1 43.9383 151.083 43.9207 151.08 43.9179C151.077 43.9151 151.06 43.8978 151.04 43.84C151.02 43.7774 150.998 43.6697 150.998 43.5H148.998C148.998 44.1541 149.162 44.8284 149.666 45.3321C150.17 45.8358 150.844 46 151.498 46V44ZM150.998 43.5C150.998 43.3303 151.02 43.2226 151.04 43.16C151.06 43.1022 151.077 43.0849 151.08 43.0821C151.083 43.0793 151.1 43.0617 151.158 43.0424C151.221 43.0216 151.328 43 151.498 43V41C150.844 41 150.17 41.1642 149.666 41.6679C149.162 42.1716 148.998 42.8459 148.998 43.5H150.998ZM151.498 43C158.158 43 162.92 42.5081 165.619 41.4285L164.877 39.5715C162.576 40.4919 158.172 41 151.498 41V43ZM165.619 41.4285C166.245 41.1784 166.791 40.8949 167.199 40.5575C167.6 40.2252 167.998 39.7245 167.998 39.05H165.998C165.998 38.8755 166.105 38.8665 165.923 39.0175C165.746 39.1635 165.418 39.3549 164.877 39.5715L165.619 41.4285ZM167.998 39.05C167.998 37.918 167.061 37.2207 166.181 36.7985L165.315 38.6015C165.67 38.772 165.861 38.9187 165.952 39.0169C166.03 39.1011 165.998 39.1061 165.998 39.05H167.998ZM166.195 36.8056C165.324 36.3698 163.896 35.834 161.959 35.1997L161.337 37.1003C163.267 37.7326 164.572 38.2302 165.301 38.5944L166.195 36.8056ZM161.964 35.2013C160.073 34.5709 158.656 34.0484 157.696 33.6324L156.9 35.4676C157.941 35.9183 159.423 36.4624 161.332 37.0987L161.964 35.2013ZM157.684 33.6273C155.355 32.6545 153.69 31.4633 152.608 30.093C151.538 28.7375 150.998 27.1545 150.998 25.3H148.998C148.998 27.5788 149.674 29.6042 151.038 31.332C152.39 33.045 154.374 34.4121 156.913 35.4727L157.684 33.6273ZM150.998 25.3C150.998 22.94 151.996 20.9516 154.116 19.2863L152.88 17.7137C150.333 19.7151 148.998 22.26 148.998 25.3H150.998ZM154.123 19.2809C156.262 17.5695 158.836 16.7 161.898 16.7V14.7C158.427 14.7 155.401 15.6971 152.873 17.7191L154.123 19.2809ZM161.898 16.7C163.485 16.7 164.739 17.1634 165.734 18.0474L167.062 16.5526C165.657 15.3032 163.911 14.7 161.898 14.7V16.7ZM165.744 18.0564C166.779 18.9518 167.248 19.9678 167.248 21.15H169.248C169.248 19.3322 168.484 17.7816 167.052 16.5436L165.744 18.0564ZM167.248 21.15C167.248 22.357 166.791 23.4432 165.791 24.4429L167.205 25.8571C168.539 24.5235 169.248 22.943 169.248 21.15H167.248ZM165.791 24.4429C165.224 25.0103 164.774 25.4068 164.434 25.6545C164.264 25.7783 164.143 25.8496 164.064 25.8866C163.975 25.9288 163.998 25.9 164.098 25.9V27.9C164.415 27.9 164.7 27.7983 164.919 27.6946C165.149 27.5858 165.382 27.4384 165.612 27.2705C166.072 26.9349 166.606 26.4564 167.205 25.8571L165.791 24.4429ZM164.098 25.9C163.928 25.9 163.821 25.8784 163.758 25.8576C163.7 25.8383 163.683 25.8207 163.68 25.8179C163.677 25.8151 163.66 25.7978 163.64 25.74C163.62 25.6774 163.598 25.5696 163.598 25.4H161.598C161.598 26.0541 161.762 26.7284 162.266 27.2321C162.77 27.7358 163.444 27.9 164.098 27.9V25.9ZM163.598 25.4C163.598 25.4839 163.572 25.4174 163.755 25.1422C163.921 24.8937 164.195 24.5669 164.605 24.1571L163.191 22.7429C162.734 23.1997 162.359 23.6313 162.091 24.0328C161.841 24.4076 161.598 24.8828 161.598 25.4H163.598ZM164.605 24.1571C165.08 23.6825 165.469 23.2328 165.746 22.8125C166.007 22.4155 166.248 21.927 166.248 21.4H164.248C164.248 21.3396 164.264 21.4261 164.075 21.7125C163.902 21.9755 163.616 22.3175 163.191 22.7429L164.605 24.1571ZM166.248 21.4C166.248 20.2909 165.789 19.3528 164.918 18.6651L163.678 20.2349C164.074 20.5472 164.248 20.9091 164.248 21.4H166.248ZM164.938 18.6818C164.119 17.999 163.091 17.7 161.948 17.7V19.7C162.738 19.7 163.277 19.901 163.658 20.2182L164.938 18.6818ZM161.948 17.7C159.302 17.7 156.974 18.3828 155.015 19.7873L156.181 21.4127C157.755 20.2839 159.661 19.7 161.948 19.7V17.7ZM155.018 19.7852C153.082 21.1627 151.998 22.9415 151.998 25.1H153.998C153.998 23.7252 154.647 22.5039 156.178 21.4148L155.018 19.7852ZM151.998 25.1C151.998 27.0528 152.537 28.7118 153.729 29.945L155.167 28.555C154.426 27.7882 153.998 26.6806 153.998 25.1H151.998ZM153.741 29.9571C154.825 31.0415 156.046 31.8819 157.401 32.4679L158.195 30.6321C157.083 30.1515 156.071 29.4585 155.155 28.5429L153.741 29.9571ZM157.431 32.4802C158.712 32.9857 159.993 33.4577 161.274 33.8962L161.922 32.0038C160.67 31.5756 159.418 31.1143 158.165 30.6198L157.431 32.4802ZM161.297 33.9036C162.55 34.2993 163.575 34.6576 164.377 34.9785L165.119 33.1215C164.255 32.7757 163.179 32.4007 161.899 31.9964L161.297 33.9036ZM164.421 34.995C165.233 35.2762 166.051 35.6374 166.874 36.0805L167.822 34.3195C166.912 33.8293 165.996 33.4238 165.075 33.105L164.421 34.995ZM166.868 36.0773C168.421 36.9268 168.998 37.9061 168.998 39H170.998C170.998 36.9606 169.809 35.4065 167.828 34.3227L166.868 36.0773ZM168.998 39C168.998 39.7466 168.74 40.3877 168.179 40.9673C167.596 41.5708 166.657 42.1325 165.275 42.6035L165.921 44.4965C167.472 43.9675 168.734 43.2709 169.617 42.3577C170.523 41.4206 170.998 40.2867 170.998 39H168.998ZM165.282 42.6013C162.545 43.5135 157.984 44 151.498 44V46C158.012 46 162.851 45.5198 165.914 44.4987L165.282 42.6013ZM225.745 20L226.744 20.04L226.745 20.02V20H225.745ZM225.045 37.5L224.046 37.46L224.045 37.48V37.5H225.045ZM222.045 37.5L221.046 37.46L221.045 37.48V37.5H222.045ZM222.745 20L223.744 20.04L223.746 19.9837L223.742 19.9275L222.745 20ZM222.545 17.25H221.545V17.2863L221.548 17.3225L222.545 17.25ZM225.545 17.2L224.55 17.2995L224.553 17.3321L224.559 17.3644L225.545 17.2ZM201.045 21.5L200.071 21.7272L200.075 21.7453L200.08 21.7631L201.045 21.5ZM201.945 26.1L200.959 26.269L200.96 26.2713L201.945 26.1ZM199.045 27L200.033 26.8456L200.032 26.8413L199.045 27ZM198.395 23.25L199.373 23.044L199.37 23.0256L199.365 23.0075L198.395 23.25ZM204.045 18.7V17.7H204.012L203.978 17.7022L204.045 18.7ZM199.545 19V20H199.578L199.611 19.9978L199.545 19ZM199.545 16L199.445 15.005L199.545 16ZM211.695 18.35L212.376 17.6177V17.6177L211.695 18.35ZM211.895 30.4L211.224 29.6588L209.955 30.8075L211.579 31.3487L211.895 30.4ZM216.295 32.95L215.598 33.6676L215.609 33.678L215.62 33.688L216.295 32.95ZM217.395 39.7L218.302 40.1211L218.307 40.1091L217.395 39.7ZM215.895 42L215.168 41.3134L215.895 42ZM213.345 43.85L212.857 42.9771L213.345 43.85ZM210.445 45.25L210.796 46.1863L210.445 45.25ZM206.945 46.55L207.292 47.488H207.292L206.945 46.55ZM203.695 47.75L203.349 46.8117L203.328 46.8195L203.307 46.8284L203.695 47.75ZM201.995 45.25L201.628 44.3195L201.619 44.3235L201.995 45.25ZM205.695 43.85L205.351 42.9109L205.695 43.85ZM208.795 42.7L208.453 41.7602L208.446 41.7628L208.439 41.7655L208.795 42.7ZM211.295 41.6L211.742 42.4944L211.749 42.4911L211.755 42.4878L211.295 41.6ZM213.345 40.25L214.025 40.9828L214.03 40.9782L213.345 40.25ZM212.195 33.8L211.78 34.7098L211.787 34.7129L211.793 34.7158L212.195 33.8ZM209.545 20.5L208.876 21.2434L208.886 21.2526L209.545 20.5ZM224.746 19.96L224.046 37.46L226.044 37.54L226.744 20.04L224.746 19.96ZM224.045 37.5C224.045 38.3747 224.484 39.0811 225.147 39.6C225.781 40.0959 226.65 40.4521 227.667 40.7176C229.711 41.2508 232.69 41.5 236.545 41.5V39.5C232.733 39.5 229.962 39.2492 228.172 38.7824C227.273 38.5479 226.705 38.2791 226.38 38.025C226.085 37.7939 226.045 37.6253 226.045 37.5H224.045ZM236.545 41.5C236.715 41.5 236.822 41.5216 236.885 41.5424C236.943 41.5617 236.96 41.5793 236.963 41.5821C236.966 41.5849 236.983 41.6022 237.002 41.66C237.023 41.7226 237.045 41.8303 237.045 42H239.045C239.045 41.3459 238.881 40.6716 238.377 40.1679C237.873 39.6642 237.199 39.5 236.545 39.5V41.5ZM237.045 42C237.045 42.1697 237.023 42.2774 237.002 42.34C236.983 42.3978 236.966 42.4151 236.963 42.4179C236.96 42.4207 236.943 42.4383 236.885 42.4576C236.822 42.4784 236.715 42.5 236.545 42.5V44.5C237.199 44.5 237.873 44.3358 238.377 43.8321C238.881 43.3284 239.045 42.6541 239.045 42H237.045ZM236.545 42.5C231.751 42.5 228.285 41.9997 226.052 41.076C224.946 40.6181 224.198 40.0787 223.73 39.4977C223.275 38.9326 223.045 38.2812 223.045 37.5H221.045C221.045 38.7188 221.419 39.8174 222.172 40.7523C222.913 41.6713 223.977 42.3819 225.288 42.924C227.889 44.0003 231.673 44.5 236.545 44.5V42.5ZM223.044 37.54L223.744 20.04L221.746 19.96L221.046 37.46L223.044 37.54ZM223.742 19.9275L223.542 17.1775L221.548 17.3225L221.748 20.0725L223.742 19.9275ZM223.545 17.25C223.545 16.8794 223.635 16.7866 223.639 16.7829C223.643 16.7782 223.66 16.7611 223.714 16.7424C223.774 16.7219 223.878 16.7 224.045 16.7V14.7C223.382 14.7 222.704 14.873 222.201 15.3921C221.705 15.905 221.545 16.5873 221.545 17.25H223.545ZM224.045 16.7C224.306 16.7 224.373 16.7673 224.388 16.7821C224.418 16.8122 224.513 16.9343 224.55 17.2995L226.54 17.1005C226.476 16.4657 226.272 15.8378 225.802 15.3679C225.317 14.8827 224.684 14.7 224.045 14.7V16.7ZM224.559 17.3644C224.68 18.0962 224.745 18.9723 224.745 20H226.745C226.745 18.8944 226.676 17.9038 226.531 17.0356L224.559 17.3644ZM199.045 21.5C199.045 21.3303 199.066 21.2226 199.087 21.16C199.107 21.1022 199.124 21.0849 199.127 21.0821C199.13 21.0793 199.147 21.0617 199.205 21.0424C199.268 21.0216 199.375 21 199.545 21V19C198.891 19 198.216 19.1642 197.713 19.6679C197.209 20.1716 197.045 20.8459 197.045 21.5H199.045ZM199.545 21C199.688 21 199.742 21.0364 199.788 21.0821C199.859 21.1534 199.979 21.3314 200.071 21.7272L202.019 21.2728C201.878 20.6686 201.631 20.0966 201.202 19.6679C200.748 19.2136 200.169 19 199.545 19V21ZM200.08 21.7631C200.265 22.4417 200.558 23.9263 200.959 26.269L202.931 25.931C202.532 23.607 202.225 22.025 202.01 21.2369L200.08 21.7631ZM200.96 26.2713C201.342 28.4689 201.545 33.6746 201.545 42H203.545C203.545 33.7254 203.348 28.3311 202.93 25.9287L200.96 26.2713ZM201.545 42C201.545 42.1697 201.523 42.2774 201.502 42.34C201.483 42.3978 201.466 42.4151 201.463 42.4179C201.46 42.4207 201.443 42.4383 201.385 42.4576C201.322 42.4784 201.215 42.5 201.045 42.5V44.5C201.699 44.5 202.373 44.3358 202.877 43.8321C203.381 43.3284 203.545 42.6541 203.545 42H201.545ZM201.045 42.5C200.875 42.5 200.768 42.4784 200.705 42.4576C200.647 42.4383 200.63 42.4207 200.627 42.4179C200.624 42.4151 200.607 42.3978 200.587 42.34C200.566 42.2774 200.545 42.1697 200.545 42H198.545C198.545 42.6541 198.709 43.3284 199.213 43.8321C199.716 44.3358 200.391 44.5 201.045 44.5V42.5ZM200.545 42C200.545 34.1575 200.381 29.0718 200.033 26.8456L198.057 27.1544C198.376 29.1949 198.545 34.1092 198.545 42H200.545ZM200.032 26.8413C199.733 24.9781 199.513 23.7047 199.373 23.044L197.416 23.456C197.544 24.062 197.757 25.2885 198.058 27.1587L200.032 26.8413ZM199.365 23.0075C199.25 22.5481 199.167 22.186 199.113 21.9164C199.086 21.7815 199.068 21.6769 199.057 21.5992C199.045 21.5143 199.045 21.4883 199.045 21.5H197.045C197.045 21.7278 197.094 22.0215 197.152 22.3086C197.215 22.6223 197.306 23.0186 197.425 23.4925L199.365 23.0075ZM203.978 17.7022L199.478 18.0022L199.611 19.9978L204.111 19.6978L203.978 17.7022ZM199.545 18C199.375 18 199.268 17.9784 199.205 17.9576C199.147 17.9383 199.13 17.9207 199.127 17.9179C199.124 17.9151 199.107 17.8978 199.087 17.84C199.066 17.7774 199.045 17.6696 199.045 17.5H197.045C197.045 18.1541 197.209 18.8284 197.713 19.3321C198.216 19.8358 198.891 20 199.545 20V18ZM199.045 17.5C199.045 17.2393 199.112 17.1719 199.127 17.1571C199.157 17.127 199.279 17.0316 199.644 16.995L199.445 15.005C198.811 15.0684 198.183 15.273 197.713 15.7429C197.228 16.2281 197.045 16.8607 197.045 17.5H199.045ZM199.644 16.995C201.637 16.7957 203.097 16.7 204.045 16.7V14.7C202.993 14.7 201.453 14.8043 199.445 15.005L199.644 16.995ZM204.045 16.7C207.054 16.7 209.34 17.5257 211.014 19.0823L212.376 17.6177C210.25 15.641 207.436 14.7 204.045 14.7V16.7ZM211.014 19.0823C212.736 20.6833 213.545 22.4772 213.545 24.5H215.545C215.545 21.8562 214.454 19.5501 212.376 17.6177L211.014 19.0823ZM213.545 24.5C213.545 26.5441 212.786 28.2437 211.224 29.6588L212.566 31.1412C214.537 29.3563 215.545 27.1226 215.545 24.5H213.545ZM211.579 31.3487C213.265 31.9106 214.592 32.6912 215.598 33.6676L216.991 32.2324C215.731 31.0088 214.125 30.0894 212.211 29.4513L211.579 31.3487ZM215.62 33.688C216.642 34.622 217.045 35.5217 217.045 36.4H219.045C219.045 34.8116 218.282 33.4114 216.97 32.212L215.62 33.688ZM217.045 36.4C217.045 37.5153 216.849 38.4724 216.482 39.2909L218.307 40.1091C218.807 38.9943 219.045 37.7514 219.045 36.4H217.045ZM216.488 39.2789C216.089 40.1377 215.645 40.8082 215.168 41.3134L216.622 42.6866C217.278 41.9918 217.834 41.129 218.302 40.1211L216.488 39.2789ZM215.168 41.3134C214.699 41.8097 213.946 42.3683 212.857 42.9771L213.833 44.7229C215.01 44.065 215.957 43.3903 216.622 42.6866L215.168 41.3134ZM212.857 42.9771C211.748 43.5971 210.829 44.0379 210.094 44.3137L210.796 46.1863C211.661 45.8621 212.676 45.3696 213.833 44.7229L212.857 42.9771ZM210.094 44.3137C209.296 44.6128 208.131 45.0455 206.598 45.612L207.292 47.488C208.825 46.9212 209.994 46.4872 210.796 46.1863L210.094 44.3137ZM206.598 45.612C205.065 46.1787 203.982 46.5785 203.349 46.8117L204.041 48.6883C204.674 48.4548 205.758 48.0547 207.292 47.488L206.598 45.612ZM203.307 46.8284C202.771 47.054 202.303 47.15 201.895 47.15V49.15C202.62 49.15 203.352 48.9793 204.083 48.6716L203.307 46.8284ZM201.895 47.15C201.728 47.15 201.624 47.1281 201.564 47.1076C201.51 47.0889 201.493 47.0718 201.489 47.0671C201.485 47.0634 201.395 46.9706 201.395 46.6H199.395C199.395 47.2627 199.555 47.945 200.051 48.4579C200.554 48.977 201.232 49.15 201.895 49.15V47.15ZM201.395 46.6C201.395 46.783 201.285 46.8075 201.44 46.6768C201.591 46.5494 201.881 46.3757 202.371 46.1765L201.619 44.3235C201.042 44.5576 200.532 44.8256 200.15 45.1482C199.772 45.4675 199.395 45.9504 199.395 46.6H201.395ZM202.361 46.1804C203.452 45.7507 204.678 45.2869 206.038 44.7891L205.351 42.9109C203.979 43.4131 202.738 43.8827 201.628 44.3196L202.361 46.1804ZM206.038 44.7891C207.406 44.2887 208.445 43.9036 209.151 43.6345L208.439 41.7655C207.745 42.0298 206.717 42.4113 205.351 42.9109L206.038 44.7891ZM209.137 43.6398C209.916 43.3565 210.785 42.9729 211.742 42.4944L210.848 40.7056C209.938 41.1604 209.141 41.5101 208.453 41.7602L209.137 43.6398ZM211.755 42.4878C212.694 42.001 213.466 41.5026 214.025 40.9828L212.664 39.5172C212.291 39.8641 211.696 40.2657 210.835 40.7122L211.755 42.4878ZM214.03 40.9782C215.345 39.7406 216.045 38.2344 216.045 36.5H214.045C214.045 37.6323 213.611 38.626 212.66 39.5218L214.03 40.9782ZM216.045 36.5C216.045 35.6555 215.621 34.9437 215.02 34.374C214.427 33.8122 213.598 33.3233 212.597 32.8842L211.793 34.7158C212.692 35.11 213.288 35.4878 213.645 35.826C213.993 36.1563 214.045 36.3779 214.045 36.5H216.045ZM212.61 32.8902C210.595 31.9712 208.571 31.5 206.545 31.5V33.5C208.252 33.5 209.995 33.8955 211.78 34.7098L212.61 32.8902ZM206.545 31.5C206.375 31.5 206.268 31.4784 206.205 31.4576C206.147 31.4383 206.13 31.4207 206.127 31.4179C206.124 31.4151 206.107 31.3978 206.087 31.34C206.066 31.2774 206.045 31.1697 206.045 31H204.045C204.045 31.6541 204.209 32.3284 204.713 32.8321C205.216 33.3358 205.891 33.5 206.545 33.5V31.5ZM206.045 31C206.045 30.8303 206.066 30.7226 206.087 30.66C206.107 30.6022 206.124 30.5849 206.127 30.5821C206.13 30.5793 206.147 30.5617 206.205 30.5424C206.268 30.5216 206.375 30.5 206.545 30.5V28.5C205.891 28.5 205.216 28.6642 204.713 29.1679C204.209 29.6716 204.045 30.3459 204.045 31H206.045ZM206.545 30.5C208.161 30.5 209.577 29.882 210.752 28.7071L209.338 27.2929C208.513 28.118 207.596 28.5 206.545 28.5V30.5ZM210.752 28.7071C211.937 27.5217 212.545 26.0682 212.545 24.4H210.545C210.545 25.5318 210.152 26.4783 209.338 27.2929L210.752 28.7071ZM212.545 24.4C212.545 22.6119 211.698 21.0554 210.203 19.7474L208.886 21.2526C210.058 22.2779 210.545 23.3214 210.545 24.4H212.545ZM210.214 19.7567C208.647 18.3467 206.549 17.7 204.045 17.7V19.7C206.207 19.7 207.776 20.2533 208.876 21.2433L210.214 19.7567ZM289.639 32.5L290.346 31.7929L289.639 32.5ZM287.139 34.9L287.02 35.8929L287.041 35.8954L287.062 35.8971L287.139 34.9ZM285.139 34.75V33.75H283.429L284.267 35.2403L285.139 34.75ZM284.039 42.95L284.755 43.6483L284.039 42.95ZM272.539 42.5L271.825 43.2001L271.832 43.2071L271.839 43.2141L272.539 42.5ZM271.039 28.75L272.002 29.0211L272.003 29.0176L271.039 28.75ZM273.839 22.25L272.992 21.7187L272.989 21.7226L273.839 22.25ZM278.589 17.5L278.068 16.6463L278.062 16.6504L278.589 17.5ZM288.639 17.1L289.346 16.3929V16.3929L288.639 17.1ZM288.789 24.5L289.634 25.0351L289.641 25.0234L289.648 25.0115L288.789 24.5ZM286.289 22.9L287.147 23.4145V23.4145L286.289 22.9ZM278.389 21.4L277.701 20.674L277.695 20.6802L278.389 21.4ZM274.289 27.95L273.342 27.6301L273.338 27.6412L274.289 27.95ZM281.939 40.85L282.662 41.5412L281.939 40.85ZM254.139 22.3L253.983 23.2878L254.061 23.3H254.139V22.3ZM253.189 22.15L253.025 23.1364L253.033 23.1378L253.189 22.15ZM248.489 23.3L249.182 24.0214L249.203 24.0005L249.224 23.9783L248.489 23.3ZM246.539 26.4L247.474 26.755L247.477 26.7457L246.539 26.4ZM260.139 38.45L260.914 39.0827L260.918 39.0773L260.139 38.45ZM261.789 23.45L262.68 22.9955L261.789 23.45ZM255.689 21.25L255.555 20.259L254.875 20.3509L254.716 21.0184L255.689 21.25ZM244.539 41.85L243.751 42.4657L243.756 42.4717L244.539 41.85ZM244.089 24.65L245.012 25.036L245.012 25.0346L244.089 24.65ZM246.939 20.65L247.593 21.4064L247.595 21.405L246.939 20.65ZM253.039 19.1L252.94 20.095L253.33 20.1341L253.643 19.8967L253.039 19.1ZM263.939 21.3L263.095 21.8369L263.099 21.8427L263.939 21.3ZM262.239 40.55L263 41.1994L263.003 41.1952L262.239 40.55ZM281.539 33.5C281.539 33.4131 281.559 33.3741 281.585 33.3404C281.62 33.2936 281.714 33.2026 281.94 33.1037C282.415 32.8959 283.248 32.75 284.539 32.75V30.75C283.164 30.75 281.997 30.8958 281.138 31.2713C280.698 31.4641 280.291 31.7376 279.994 32.1283C279.686 32.5322 279.539 33.0035 279.539 33.5H281.539ZM284.539 32.75C285.969 32.75 287.063 32.8121 287.844 32.9269C288.234 32.9843 288.519 33.0512 288.716 33.1184C288.929 33.1908 288.963 33.2383 288.932 33.2071L290.346 31.7929C290.065 31.5117 289.699 31.3405 289.362 31.2254C289.009 31.1051 288.594 31.0157 288.135 30.9481C287.215 30.8129 286.01 30.75 284.539 30.75V32.75ZM288.932 33.2071C288.999 33.274 289.039 33.3474 289.039 33.5H291.039C291.039 32.8526 290.813 32.2594 290.346 31.7929L288.932 33.2071ZM289.039 33.5C289.039 33.6697 289.018 33.7774 288.997 33.84C288.977 33.8978 288.96 33.9151 288.957 33.9179C288.954 33.9207 288.937 33.9383 288.879 33.9576C288.816 33.9784 288.709 34 288.539 34V36C289.193 36 289.867 35.8358 290.371 35.3321C290.875 34.8284 291.039 34.1541 291.039 33.5H289.039ZM288.539 34C288.552 34 288.469 33.996 288.21 33.9775C287.98 33.9611 287.649 33.9362 287.216 33.9029L287.062 35.8971C287.892 35.9609 288.422 36 288.539 36V34ZM287.258 33.9071C286.408 33.8051 285.697 33.75 285.139 33.75V35.75C285.582 35.75 286.203 35.7949 287.02 35.8929L287.258 33.9071ZM284.267 35.2403C284.799 36.1849 285.039 37.0676 285.039 37.9H287.039C287.039 36.6657 286.679 35.4484 286.011 34.2597L284.267 35.2403ZM285.039 37.9C285.039 39.6528 284.465 41.0814 283.323 42.2517L284.755 43.6483C286.28 42.0853 287.039 40.1472 287.039 37.9H285.039ZM283.323 42.2517C282.188 43.4154 280.784 44 279.039 44V46C281.294 46 283.224 45.2179 284.755 43.6483L283.323 42.2517ZM279.039 44C276.637 44 274.732 43.2491 273.239 41.7859L271.839 43.2141C273.747 45.0842 276.174 46 279.039 46V44ZM273.253 41.7999C271.782 40.2997 271.039 38.4401 271.039 36.15H269.039C269.039 38.9266 269.962 41.3003 271.825 43.2001L273.253 41.7999ZM271.039 36.15C271.039 33.671 271.361 31.2958 272.002 29.0211L270.077 28.4789C269.384 30.9376 269.039 33.4957 269.039 36.15H271.039ZM272.003 29.0176C272.646 26.7006 273.543 24.6227 274.689 22.7774L272.989 21.7226C271.735 23.7439 270.765 25.9994 270.076 28.4824L272.003 29.0176ZM274.686 22.7813C275.84 20.941 277.315 19.4676 279.116 18.3496L278.062 16.6504C275.996 17.9324 274.304 19.6256 272.992 21.7187L274.686 22.7813ZM279.11 18.3536C280.918 17.2506 282.887 16.7 285.039 16.7V14.7C282.524 14.7 280.194 15.3494 278.068 16.6464L279.11 18.3536ZM285.039 16.7C286.273 16.7 287.208 17.083 287.932 17.8071L289.346 16.3929C288.204 15.2504 286.739 14.7 285.039 14.7V16.7ZM287.932 17.8071C288.681 18.5561 289.039 19.4197 289.039 20.45H291.039C291.039 18.8803 290.464 17.5105 289.346 16.3929L287.932 17.8071ZM289.039 20.45C289.039 21.5296 288.694 22.7044 287.93 23.9885L289.648 25.0115C290.551 23.4956 291.039 21.9704 291.039 20.45H289.039ZM287.944 23.9649C287.655 24.4212 287.413 24.7054 287.226 24.8657C287.037 25.0276 286.981 25 287.039 25V27C287.631 27 288.133 26.7224 288.527 26.3843C288.924 26.0446 289.289 25.5788 289.634 25.0351L287.944 23.9649ZM287.039 25C286.869 25 286.762 24.9784 286.699 24.9576C286.641 24.9383 286.624 24.9207 286.621 24.9179C286.618 24.9151 286.601 24.8978 286.581 24.84C286.561 24.7774 286.539 24.6696 286.539 24.5H284.539C284.539 25.1541 284.703 25.8284 285.207 26.3321C285.711 26.8358 286.385 27 287.039 27V25ZM286.539 24.5C286.539 24.5965 286.518 24.6361 286.537 24.5788C286.551 24.5353 286.58 24.4609 286.632 24.3494C286.736 24.1269 286.904 23.8181 287.147 23.4145L285.432 22.3855C285.174 22.8153 284.967 23.1898 284.821 23.5006C284.748 23.6558 284.684 23.8106 284.635 23.9587C284.591 24.093 284.539 24.2868 284.539 24.5H286.539ZM287.147 23.4145C287.694 22.5022 288.039 21.5868 288.039 20.7H286.039C286.039 21.0799 285.884 21.6311 285.432 22.3855L287.147 23.4145ZM288.039 20.7C288.039 19.8792 287.833 19.0799 287.246 18.4929C286.659 17.9059 285.86 17.7 285.039 17.7V19.7C285.552 19.7 285.752 19.8275 285.832 19.9071C285.912 19.9868 286.039 20.1875 286.039 20.7H288.039ZM285.039 17.7C282.241 17.7 279.78 18.7045 277.701 20.674L279.077 22.126C280.798 20.4955 282.771 19.7 285.039 19.7V17.7ZM277.695 20.6802C275.708 22.5963 274.257 24.9188 273.342 27.6301L275.237 28.2699C276.054 25.8479 277.337 23.8037 279.083 22.1198L277.695 20.6802ZM273.338 27.6412C272.471 30.3113 272.039 33.0991 272.039 36H274.039C274.039 33.3009 274.44 30.722 275.24 28.2588L273.338 27.6412ZM272.039 36C272.039 38.0201 272.665 39.7399 273.982 41.0571L275.396 39.6429C274.513 38.7601 274.039 37.5799 274.039 36H272.039ZM273.982 41.0571C275.262 42.3369 276.813 43 278.589 43V41C277.365 41 276.316 40.5631 275.396 39.6429L273.982 41.0571ZM278.589 43C280.247 43 281.673 42.5751 282.662 41.5412L281.216 40.1588C280.739 40.6582 279.931 41 278.589 41V43ZM282.662 41.5412C283.568 40.594 284.039 39.4484 284.039 38.15H282.039C282.039 38.9183 281.777 39.5727 281.216 40.1588L282.662 41.5412ZM284.039 38.15C284.039 36.8084 283.483 35.6499 282.466 34.7141L281.112 36.1859C281.762 36.7835 282.039 37.4249 282.039 38.15H284.039ZM282.466 34.7141C282.086 34.3645 281.839 34.0756 281.693 33.8478C281.545 33.6156 281.539 33.5078 281.539 33.5H279.539C279.539 34.0255 279.742 34.5094 280.01 34.9272C280.28 35.3494 280.659 35.7689 281.112 36.1859L282.466 34.7141ZM254.295 21.3122L253.345 21.1622L253.033 23.1378L253.983 23.2878L254.295 21.3122ZM253.353 21.1636C252.682 21.0516 251.89 21 250.989 21V23C251.822 23 252.496 23.0484 253.025 23.1364L253.353 21.1636ZM250.989 21C249.754 21 248.673 21.6268 247.754 22.6217L249.224 23.9783C249.906 23.2398 250.491 23 250.989 23V21ZM247.797 22.5786C246.837 23.4999 246.111 24.6693 245.601 26.0543L247.477 26.7457C247.9 25.5974 248.475 24.7001 249.182 24.0214L247.797 22.5786ZM245.604 26.045C244.575 28.7554 244.039 31.2451 244.039 33.5H246.039C246.039 31.5549 246.503 29.3113 247.474 26.755L245.604 26.045ZM244.039 33.5C244.039 36.4389 244.618 38.8279 245.943 40.4969C247.304 42.2099 249.316 43 251.789 43V41C249.762 41 248.399 40.3735 247.51 39.2531C246.585 38.0888 246.039 36.2278 246.039 33.5H244.039ZM251.789 43C255.66 43 258.754 41.7265 260.914 39.0826L259.365 37.8174C257.658 39.9068 255.185 41 251.789 41V43ZM260.918 39.0773C263.029 36.4568 264.039 33.0664 264.039 29H262.039C262.039 32.7336 261.116 35.6432 259.36 37.8227L260.918 39.0773ZM264.039 29C264.039 26.7956 263.594 24.7866 262.68 22.9955L260.898 23.9045C261.651 25.3801 262.039 27.071 262.039 29H264.039ZM262.68 22.9955C262.202 22.0587 261.574 21.2986 260.773 20.7753C259.967 20.2486 259.043 20 258.039 20V22C258.702 22 259.236 22.1597 259.68 22.4497C260.129 22.7431 260.543 23.208 260.898 23.9045L262.68 22.9955ZM258.039 20C257.624 20 256.767 20.0953 255.555 20.259L255.823 22.241C257.078 22.0714 257.787 22 258.039 22V20ZM254.716 21.0184C254.681 21.1649 254.635 21.1962 254.616 21.2096C254.576 21.2366 254.448 21.3 254.139 21.3V23.3C254.697 23.3 255.261 23.1884 255.737 22.8654C256.234 22.5288 256.53 22.0351 256.662 21.4816L254.716 21.0184ZM251.789 44C248.866 44 246.764 43.0448 245.322 41.2283L243.756 42.4717C245.648 44.8552 248.379 46 251.789 46V44ZM245.327 41.2344C243.831 39.3194 243.039 36.771 243.039 33.5H241.039C241.039 37.0957 241.914 40.114 243.751 42.4656L245.327 41.2344ZM243.039 33.5C243.039 31.0364 243.679 28.2201 245.012 25.036L243.167 24.264C241.765 27.6132 241.039 30.697 241.039 33.5H243.039ZM245.012 25.0346C245.623 23.5685 246.484 22.3653 247.593 21.4064L246.285 19.8936C244.927 21.0681 243.888 22.5315 243.166 24.2654L245.012 25.0346ZM247.595 21.405C248.698 20.447 249.87 20 251.139 20V18C249.341 18 247.714 18.653 246.283 19.895L247.595 21.405ZM251.139 20C251.702 20 252.302 20.0313 252.94 20.095L253.139 18.105C252.443 18.0354 251.776 18 251.139 18V20ZM253.643 19.8967C254.332 19.3745 255.74 19 258.139 19V17C255.671 17 253.68 17.3588 252.435 18.3033L253.643 19.8967ZM258.139 19C260.241 19 261.866 19.9055 263.095 21.8369L264.783 20.7631C263.212 18.2945 260.971 17 258.139 17V19ZM263.099 21.8427C264.38 23.8245 265.039 26.1963 265.039 29H267.039C267.039 25.8704 266.298 23.1089 264.779 20.7573L263.099 21.8427ZM265.039 29C265.039 33.5124 263.827 37.1192 261.475 39.9048L263.003 41.1952C265.717 37.9808 267.039 33.8876 267.039 29H265.039ZM261.479 39.9006C259.162 42.613 255.974 44 251.789 44V46C256.47 46 260.249 44.4203 263 41.1994L261.479 39.9006Z" fill="black"/>
<path d="M17 74.5399C73.5 53.0399 230.3 49.3399 277.5 74.5399" stroke="#373737" stroke-width="3"/>
</svg>
